<svg id="Layer_1" data-name="Layer 1" xmlns="http://www.w3.org/2000/svg" viewBox="0 0 1952.19 678.93"><defs><style>.cls-1{fill:none;stroke:#e9ff09;stroke-linecap:round;stroke-miterlimit:10;stroke-width:10px;stroke-dasharray:0 20 0 20 0 20;}.cls-2{fill:#fff;fill-rule:evenodd;}.cls-3{fill:#e9ff09;}.cls-4{font-size:13px;fill:#ffdfdf;font-family:TwCenMT-Regular, Tw Cen MT;}.cls-5{letter-spacing:-0.03em;}.cls-6{letter-spacing:0.04em;}.cls-7{letter-spacing:-0.01em;}.cls-8{letter-spacing:-0.08em;}.cls-9{letter-spacing:-0.02em;}</style></defs><path class="cls-1" d="M64,565.33c6.6-36.19,52.35-51.67,88.43-44.52s67.65,28.91,103,38.92c46.47,13.15,98.64,4.41,138.29-23.16,22.26-15.48,40.78-36.53,65.12-48.5,45.12-22.2,99.06-8.56,146.53,8s97.78,36.05,146.64,24.13c52.89-12.9,91.2-59.74,142.28-78.55,101.76-37.46,209,45.7,317.43,43.91,18.13-.3,36.87-3.26,52-13.26,11.58-7.64,20.25-18.84,29.5-29.19,65-72.72,169.9-107.33,265.43-87.58,40.46,8.36,78.65,25.58,119,34.5s85.74,8.38,119.21-15.85" transform="translate(77.27 -67.75)"/><g id="SVGRepo_iconCarrier" data-name="SVGRepo iconCarrier"><path class="cls-2" d="M152.36,495.12,165.26,511l12.89-15.88A17.16,17.16,0,0,0,182,484.31v-.81a16.75,16.75,0,0,0-33.49,0v.81A17.16,17.16,0,0,0,152.36,495.12Zm12.9-6.12a5.5,5.5,0,1,0-5.59-5.5A5.54,5.54,0,0,0,165.26,489Z" transform="translate(77.27 -67.75)"/></g><path class="cls-3" d="M204.46,484.62a8,8,0,0,1-1.66-.17,6.37,6.37,0,0,1-1.45-.5,6.45,6.45,0,0,1-1.27-.83l1.06-1.29a4.86,4.86,0,0,0,1.52.89,5.23,5.23,0,0,0,1.8.3,3.56,3.56,0,0,0,2-.49,1.56,1.56,0,0,0,.73-1.37h0a1.43,1.43,0,0,0-.37-1,2.14,2.14,0,0,0-1-.54,10.41,10.41,0,0,0-1.3-.3l-1.37-.27a4.61,4.61,0,0,1-1.28-.5,2.53,2.53,0,0,1-.93-1,3.54,3.54,0,0,1-.35-1.69h0a3.19,3.19,0,0,1,1.12-2.61,4.82,4.82,0,0,1,3.16-.92,5.86,5.86,0,0,1,1.9.31,6.71,6.71,0,0,1,1.81.95l-1,1.34a5.27,5.27,0,0,0-1.38-.76,3.86,3.86,0,0,0-1.37-.25,3.25,3.25,0,0,0-1.92.49,1.63,1.63,0,0,0-.69,1.4h0a1.34,1.34,0,0,0,.4,1,2.62,2.62,0,0,0,1,.53c.43.11.89.22,1.39.32a12.66,12.66,0,0,1,1.32.32,4.27,4.27,0,0,1,1.21.53,2.48,2.48,0,0,1,.87,1,3.39,3.39,0,0,1,.33,1.6v0a3.11,3.11,0,0,1-1.16,2.58A5.15,5.15,0,0,1,204.46,484.62Z" transform="translate(77.27 -67.75)"/><path class="cls-3" d="M214.66,484.62a3.74,3.74,0,0,1-2.79-1,3.9,3.9,0,0,1-1-2.86v-1a4.33,4.33,0,0,1,1-3,3.44,3.44,0,0,1,2.68-1.05A2.94,2.94,0,0,1,217,477a5.45,5.45,0,0,1,.89,3.35v.56h-5.81V479.5h4.2a2.9,2.9,0,0,0-.54-1.63,1.5,1.5,0,0,0-1.26-.59,1.83,1.83,0,0,0-1.48.63,2.65,2.65,0,0,0-.54,1.78v1.1a2.23,2.23,0,0,0,.57,1.64,2.17,2.17,0,0,0,1.6.57,2.65,2.65,0,0,0,1-.2,3.21,3.21,0,0,0,.91-.58l1.11,1.11a4.87,4.87,0,0,1-1.44.95A4.14,4.14,0,0,1,214.66,484.62Z" transform="translate(77.27 -67.75)"/><path class="cls-3" d="M223.73,484.62a3.41,3.41,0,0,1-3.73-3.75v-1.42a3.66,3.66,0,0,1,1-2.73,3.73,3.73,0,0,1,2.76-1,4.45,4.45,0,0,1,1.82.36,3,3,0,0,1,1.3,1l-1.22,1.09a2.54,2.54,0,0,0-.85-.64,2.45,2.45,0,0,0-1-.22,2,2,0,0,0-1.52.55,2.09,2.09,0,0,0-.54,1.54v1.42a2.18,2.18,0,0,0,.54,1.58,2,2,0,0,0,1.52.55,2.32,2.32,0,0,0,1-.24,2.42,2.42,0,0,0,.85-.68l1.22,1.18a3.12,3.12,0,0,1-1.3,1A4.48,4.48,0,0,1,223.73,484.62Z" transform="translate(77.27 -67.75)"/><path class="cls-3" d="M232,484.62a3.4,3.4,0,0,1-2.62-1,3.87,3.87,0,0,1-.93-2.77v-1.4a3.81,3.81,0,0,1,.93-2.74,4,4,0,0,1,5.24,0,3.81,3.81,0,0,1,.93,2.74v1.43a3.83,3.83,0,0,1-.93,2.75A3.45,3.45,0,0,1,232,484.62Zm0-1.62a1.71,1.71,0,0,0,1.37-.55,2.26,2.26,0,0,0,.49-1.56v-1.43a2.22,2.22,0,0,0-.49-1.55,2,2,0,0,0-2.74,0,2.22,2.22,0,0,0-.49,1.55v1.43a2.26,2.26,0,0,0,.49,1.56A1.73,1.73,0,0,0,232,483Z" transform="translate(77.27 -67.75)"/><path class="cls-3" d="M238,484.49v-8.62h1.69v8.62Zm5.23,0v-5.22a2,2,0,0,0-.47-1.41,1.75,1.75,0,0,0-1.33-.5,1.8,1.8,0,0,0-1.29.44,1.66,1.66,0,0,0-.45,1.24l-.17-1.66a3.09,3.09,0,0,1,1-1.21,2.54,2.54,0,0,1,1.42-.42,2.67,2.67,0,0,1,2.17.92,3.87,3.87,0,0,1,.77,2.59v5.23Z" transform="translate(77.27 -67.75)"/><path class="cls-3" d="M250.21,484.64a2.74,2.74,0,0,1-2.21-.92,3.86,3.86,0,0,1-.77-2.58v-1.9a4,4,0,0,1,.75-2.6,2.83,2.83,0,0,1,3.54-.52,3,3,0,0,1,1,1.12l-.18,1.76a1.93,1.93,0,0,0-.2-.93,1.38,1.38,0,0,0-.57-.6,2,2,0,0,0-.92-.2,1.64,1.64,0,0,0-1.3.52,2.14,2.14,0,0,0-.46,1.47v1.88a2,2,0,0,0,.46,1.44,1.64,1.64,0,0,0,1.3.52,1.79,1.79,0,0,0,.92-.22,1.35,1.35,0,0,0,.57-.61,2,2,0,0,0,.2-.95l.12,1.82a2.68,2.68,0,0,1-.8,1A2.28,2.28,0,0,1,250.21,484.64Zm2.16-.15V472.42h1.69v12.07Z" transform="translate(77.27 -67.75)"/><path class="cls-3" d="M259.39,484.62A3.62,3.62,0,0,1,257,484a2.47,2.47,0,0,1-.8-2A2.42,2.42,0,0,1,257,480a3.24,3.24,0,0,1,2.18-.64h2.45l.11,1.36h-2.55a1.43,1.43,0,0,0-1,.3,1.16,1.16,0,0,0-.33.9,1.09,1.09,0,0,0,.44,1,2.25,2.25,0,0,0,1.32.32A3.77,3.77,0,0,0,261,483a.69.69,0,0,0,.48-.65l.18,1.21a1.94,1.94,0,0,1-.56.58,2.28,2.28,0,0,1-.76.33A3.58,3.58,0,0,1,259.39,484.62Zm2.11-.13V479a1.84,1.84,0,0,0-.45-1.32,1.71,1.71,0,0,0-1.28-.47,3.12,3.12,0,0,0-1,.16,3,3,0,0,0-.89.44l-1.23-.85a3.17,3.17,0,0,1,1.29-.91,4.59,4.59,0,0,1,1.78-.33,3.48,3.48,0,0,1,2.5.84,3.07,3.07,0,0,1,.89,2.36v5.54Z" transform="translate(77.27 -67.75)"/><path class="cls-3" d="M265.69,484.49v-8.62h1.69v8.62Zm4.74-6.57a1.33,1.33,0,0,0-.57-.42,2.14,2.14,0,0,0-.79-.14,1.73,1.73,0,0,0-1.25.44,1.71,1.71,0,0,0-.44,1.24l-.17-1.66a3.17,3.17,0,0,1,1-1.2,2.41,2.41,0,0,1,1.4-.43,3.29,3.29,0,0,1,1.07.17,2.43,2.43,0,0,1,.83.5Z" transform="translate(77.27 -67.75)"/><path class="cls-3" d="M275.46,485.2,272,475.87h1.72l2.65,7.49Zm2.47-9.33h1.73L276,486.51a2.2,2.2,0,0,1-.89,1.23,3.13,3.13,0,0,1-1.59.34h-.34v-1.62h.34a1.39,1.39,0,0,0,.75-.19,1.61,1.61,0,0,0,.48-.66Z" transform="translate(77.27 -67.75)"/><path class="cls-3" d="M285.88,484.49V472.42h1.7v12.07ZM286.7,474v-1.61h6.93V474Zm0,5.27v-1.61h6v1.61Zm0,5.19v-1.61h6.93v1.61Z" transform="translate(77.27 -67.75)"/><path class="cls-3" d="M298.61,484.64a2.75,2.75,0,0,1-2.21-.92,3.91,3.91,0,0,1-.77-2.58v-1.9a4,4,0,0,1,.76-2.6,2.82,2.82,0,0,1,3.53-.52,2.94,2.94,0,0,1,1,1.12l-.18,1.76a1.93,1.93,0,0,0-.2-.93,1.38,1.38,0,0,0-.57-.6,2,2,0,0,0-.92-.2,1.64,1.64,0,0,0-1.3.52,2.14,2.14,0,0,0-.46,1.47v1.88a2,2,0,0,0,.46,1.44,1.64,1.64,0,0,0,1.3.52,1.77,1.77,0,0,0,.92-.22,1.35,1.35,0,0,0,.57-.61,2,2,0,0,0,.2-.95l.12,1.82a2.68,2.68,0,0,1-.8,1A2.26,2.26,0,0,1,298.61,484.64Zm2.16-.15V472.42h1.7v12.07Z" transform="translate(77.27 -67.75)"/><path class="cls-3" d="M306.73,475.87v5.24a2,2,0,0,0,.46,1.4,1.69,1.69,0,0,0,1.3.49,1.74,1.74,0,0,0,1.29-.44,1.65,1.65,0,0,0,.46-1.25l.11,1.8a2.41,2.41,0,0,1-.81,1,2.36,2.36,0,0,1-1.52.47,2.72,2.72,0,0,1-2.2-.92,3.89,3.89,0,0,1-.78-2.59v-5.24Zm3.51,8.62v-8.62h1.68v8.62Z" transform="translate(77.27 -67.75)"/><path class="cls-3" d="M318,484.62a3.69,3.69,0,0,1-2.75-1,3.73,3.73,0,0,1-1-2.76v-1.42a3.66,3.66,0,0,1,1-2.73,3.72,3.72,0,0,1,2.75-1,4.46,4.46,0,0,1,1.83.36,3,3,0,0,1,1.29,1l-1.22,1.09a2.51,2.51,0,0,0-.84-.64,2.45,2.45,0,0,0-1-.22,2,2,0,0,0-1.52.55,2.09,2.09,0,0,0-.54,1.54v1.42a2.18,2.18,0,0,0,.54,1.58A2,2,0,0,0,318,483a2.32,2.32,0,0,0,1-.24,2.38,2.38,0,0,0,.84-.68l1.22,1.18a3.06,3.06,0,0,1-1.3,1A4.45,4.45,0,0,1,318,484.62Z" transform="translate(77.27 -67.75)"/><path class="cls-3" d="M325.72,484.62a3.65,3.65,0,0,1-2.38-.66,2.46,2.46,0,0,1-.79-2,2.42,2.42,0,0,1,.72-1.92,3.26,3.26,0,0,1,2.18-.64h2.45l.12,1.36h-2.56a1.43,1.43,0,0,0-1,.3,1.16,1.16,0,0,0-.33.9,1.12,1.12,0,0,0,.44,1,2.25,2.25,0,0,0,1.32.32,3.77,3.77,0,0,0,1.44-.21.69.69,0,0,0,.49-.65l.17,1.21a1.83,1.83,0,0,1-.56.58,2.28,2.28,0,0,1-.76.33A3.5,3.5,0,0,1,325.72,484.62Zm2.11-.13V479a1.84,1.84,0,0,0-.46-1.32,1.71,1.71,0,0,0-1.28-.47,3.12,3.12,0,0,0-1,.16,2.91,2.91,0,0,0-.88.44L323,477a3.31,3.31,0,0,1,1.29-.91,4.63,4.63,0,0,1,1.78-.33,3.51,3.51,0,0,1,2.51.84,3.11,3.11,0,0,1,.89,2.36v5.54Z" transform="translate(77.27 -67.75)"/><path class="cls-3" d="M331.35,477.4v-1.53h3.88v1.53Zm2.9,7.13a1.88,1.88,0,0,1-1.54-.59,2.6,2.6,0,0,1-.48-1.69v-8.88h1.7v8.9a.85.85,0,0,0,.12.48.44.44,0,0,0,.37.17h.81v1.61Z" transform="translate(77.27 -67.75)"/><path class="cls-3" d="M337.55,474.11v-1.69h1.7v1.69Zm0,10.38v-8.62h1.7v8.62Z" transform="translate(77.27 -67.75)"/><path class="cls-3" d="M345.12,484.62a3.43,3.43,0,0,1-2.62-1,3.87,3.87,0,0,1-.93-2.77v-1.4a3.81,3.81,0,0,1,.93-2.74,4,4,0,0,1,5.25,0,3.81,3.81,0,0,1,.93,2.74v1.43a3.83,3.83,0,0,1-.93,2.75A3.47,3.47,0,0,1,345.12,484.62Zm0-1.62a1.74,1.74,0,0,0,1.38-.55,2.31,2.31,0,0,0,.48-1.56v-1.43a2.27,2.27,0,0,0-.48-1.55,2,2,0,0,0-2.75,0,2.27,2.27,0,0,0-.48,1.55v1.43a2.31,2.31,0,0,0,.48,1.56A1.74,1.74,0,0,0,345.12,483Z" transform="translate(77.27 -67.75)"/><path class="cls-3" d="M351.08,484.49v-8.62h1.7v8.62Zm5.23,0v-5.22a2,2,0,0,0-.46-1.41,2.06,2.06,0,0,0-2.62-.06,1.66,1.66,0,0,0-.45,1.24l-.18-1.66a3.2,3.2,0,0,1,1-1.21,2.52,2.52,0,0,1,1.42-.42,2.68,2.68,0,0,1,2.17.92,3.92,3.92,0,0,1,.77,2.59v5.23Z" transform="translate(77.27 -67.75)"/><text x="77.27" y="-67.75"/><text class="cls-4" transform="translate(276.63 433.46)">Sri G<tspan class="cls-5" x="27.29" y="0">o</tspan><tspan x="33.4" y="0">wthami High S</tspan><tspan class="cls-6" x="107.22" y="0">c</tspan><tspan x="112.75" y="0">hool - Chi</tspan><tspan class="cls-7" x="162.19" y="0">r</tspan><tspan x="166.39" y="0">ala</tspan><tspan x="0" y="15.6">G</tspan><tspan class="cls-8" x="10.02" y="15.6">P</tspan><tspan x="15.48" y="15.6" xml:space="preserve">A: 8.8  June 2016 - M</tspan><tspan class="cls-9" x="130.83" y="15.6">a</tspan><tspan x="137.74" y="15.6">y 2017</tspan></text><g id="SVGRepo_iconCarrier-2" data-name="SVGRepo iconCarrier"><path class="cls-2" d="M927.43,401.17l12.9,15.88,12.89-15.88a17.1,17.1,0,0,0,3.85-10.81v-.8a16.75,16.75,0,0,0-33.49,0v.8A17.16,17.16,0,0,0,927.43,401.17Zm12.9-6.11a5.5,5.5,0,1,0-5.58-5.5A5.55,5.55,0,0,0,940.33,395.06Z" transform="translate(77.27 -67.75)"/></g><path class="cls-3" d="M974,366.82v12.07h-1.69V366.82Z" transform="translate(77.27 -67.75)"/><path class="cls-3" d="M976.83,378.89v-8.62h1.7v8.62Zm5.23,0v-5.23a2,2,0,0,0-.47-1.41,1.73,1.73,0,0,0-1.33-.5,1.77,1.77,0,0,0-1.28.44,1.67,1.67,0,0,0-.45,1.24l-.18-1.66a3.15,3.15,0,0,1,1-1.2,2.57,2.57,0,0,1,1.43-.42,2.68,2.68,0,0,1,2.17.91,4,4,0,0,1,.77,2.6v5.23Z" transform="translate(77.27 -67.75)"/><path class="cls-3" d="M985.67,371.8v-1.53h3.88v1.53Zm2.9,7.13a1.88,1.88,0,0,1-1.54-.59,2.65,2.65,0,0,1-.48-1.7v-8.88h1.7v8.9a.81.81,0,0,0,.12.48.43.43,0,0,0,.37.18h.81v1.61Z" transform="translate(77.27 -67.75)"/><path class="cls-3" d="M995.4,379a3.74,3.74,0,0,1-2.79-1,4,4,0,0,1-1-2.86v-1a4.27,4.27,0,0,1,1-3,3.41,3.41,0,0,1,2.67-1.05,2.94,2.94,0,0,1,2.52,1.19,5.47,5.47,0,0,1,.9,3.35v.57h-5.82V373.9h4.2a2.93,2.93,0,0,0-.54-1.64,1.53,1.53,0,0,0-1.26-.59,1.83,1.83,0,0,0-1.48.63,2.67,2.67,0,0,0-.53,1.79v1.09a2.29,2.29,0,0,0,.56,1.65,2.17,2.17,0,0,0,1.6.57,2.59,2.59,0,0,0,1-.21,3,3,0,0,0,.91-.58l1.11,1.11a4.57,4.57,0,0,1-1.44.95A4,4,0,0,1,995.4,379Z" transform="translate(77.27 -67.75)"/><path class="cls-3" d="M1001,378.89v-8.62h1.69v8.62Zm4.74-6.58a1.43,1.43,0,0,0-.56-.41,2,2,0,0,0-.79-.15,1.66,1.66,0,0,0-1.25.45,1.65,1.65,0,0,0-.45,1.23l-.17-1.66a3.07,3.07,0,0,1,1-1.19,2.43,2.43,0,0,1,1.4-.43,3.25,3.25,0,0,1,1.07.16,2.41,2.41,0,0,1,.83.51Z" transform="translate(77.27 -67.75)"/><path class="cls-3" d="M1008.24,378.89v-8.62h1.7v8.62Zm5.15,0v-5.23a2,2,0,0,0-.45-1.41,1.63,1.63,0,0,0-1.27-.5,1.77,1.77,0,0,0-1.28.44,1.67,1.67,0,0,0-.45,1.24l-.18-1.66a3.15,3.15,0,0,1,1-1.2,2.8,2.8,0,0,1,3.54.49,4.07,4.07,0,0,1,.74,2.6v5.23Zm5.15,0v-5.23a2,2,0,0,0-.47-1.41,1.75,1.75,0,0,0-1.33-.5,1.54,1.54,0,0,0-1.22.49,2,2,0,0,0-.44,1.36l-.34-1.66a3.37,3.37,0,0,1,1.08-1.33,2.53,2.53,0,0,1,1.47-.46,2.66,2.66,0,0,1,2.17.91,4,4,0,0,1,.77,2.6v5.23Z" transform="translate(77.27 -67.75)"/><path class="cls-3" d="M1026.33,379a3.74,3.74,0,0,1-2.79-1,3.91,3.91,0,0,1-1-2.86v-1a4.32,4.32,0,0,1,1-3,3.44,3.44,0,0,1,2.68-1.05,2.94,2.94,0,0,1,2.52,1.19,5.47,5.47,0,0,1,.89,3.35v.57h-5.81V373.9h4.2a2.93,2.93,0,0,0-.54-1.64,1.53,1.53,0,0,0-1.26-.59,1.83,1.83,0,0,0-1.48.63,2.67,2.67,0,0,0-.53,1.79v1.09a2.25,2.25,0,0,0,.56,1.65,2.17,2.17,0,0,0,1.6.57,2.62,2.62,0,0,0,1-.21,3,3,0,0,0,.91-.58l1.11,1.11a4.68,4.68,0,0,1-1.44.95A4,4,0,0,1,1026.33,379Z" transform="translate(77.27 -67.75)"/><path class="cls-3" d="M1034.65,379a2.71,2.71,0,0,1-2.2-.91,3.89,3.89,0,0,1-.78-2.59v-1.9a3.92,3.92,0,0,1,.76-2.59,2.62,2.62,0,0,1,2.14-.92,2.51,2.51,0,0,1,1.39.4,2.87,2.87,0,0,1,1,1.12l-.17,1.76a2.07,2.07,0,0,0-.2-.94,1.38,1.38,0,0,0-.58-.59,1.87,1.87,0,0,0-.92-.21,1.64,1.64,0,0,0-1.3.53,2.17,2.17,0,0,0-.46,1.47v1.87a2.12,2.12,0,0,0,.46,1.45,1.67,1.67,0,0,0,1.3.51,1.87,1.87,0,0,0,.92-.21,1.48,1.48,0,0,0,.58-.61,2.16,2.16,0,0,0,.2-1l.11,1.82a2.46,2.46,0,0,1-.8,1A2.26,2.26,0,0,1,1034.65,379Zm2.17-.14V366.82h1.69v12.07Z" transform="translate(77.27 -67.75)"/><path class="cls-3" d="M1041.08,368.51v-1.69h1.7v1.69Zm0,10.38v-8.62h1.7v8.62Z" transform="translate(77.27 -67.75)"/><path class="cls-3" d="M1048.1,379a3.62,3.62,0,0,1-2.37-.66,2.43,2.43,0,0,1-.8-2,2.46,2.46,0,0,1,.73-1.93,3.24,3.24,0,0,1,2.18-.63h2.45l.11,1.36h-2.55a1.48,1.48,0,0,0-1,.29,1.16,1.16,0,0,0-.33.91,1.1,1.1,0,0,0,.44,1,2.26,2.26,0,0,0,1.32.31,3.77,3.77,0,0,0,1.44-.21.67.67,0,0,0,.48-.64l.18,1.21a2,2,0,0,1-.56.57,2.51,2.51,0,0,1-.76.34A4,4,0,0,1,1048.1,379Zm2.11-.12v-5.47a1.81,1.81,0,0,0-.45-1.31,1.71,1.71,0,0,0-1.28-.47,3.41,3.41,0,0,0-1,.15,3,3,0,0,0-.89.45l-1.23-.85a3.19,3.19,0,0,1,1.29-.92,4.63,4.63,0,0,1,1.78-.32,3.52,3.52,0,0,1,2.51.83,3.11,3.11,0,0,1,.88,2.37v5.54Z" transform="translate(77.27 -67.75)"/><path class="cls-3" d="M1053.73,371.8v-1.53h3.89v1.53Zm2.91,7.13a1.88,1.88,0,0,1-1.54-.59,2.65,2.65,0,0,1-.48-1.7v-8.88h1.69v8.9a.81.81,0,0,0,.13.48.4.4,0,0,0,.36.18h.82v1.61Z" transform="translate(77.27 -67.75)"/><path class="cls-3" d="M1063.47,379a3.74,3.74,0,0,1-2.79-1,3.91,3.91,0,0,1-1-2.86v-1a4.32,4.32,0,0,1,1-3,3.44,3.44,0,0,1,2.68-1.05,3,3,0,0,1,2.52,1.19,5.54,5.54,0,0,1,.89,3.35v.57h-5.81V373.9h4.2a2.93,2.93,0,0,0-.54-1.64,1.54,1.54,0,0,0-1.26-.59,1.85,1.85,0,0,0-1.49.63,2.73,2.73,0,0,0-.53,1.79v1.09a2.25,2.25,0,0,0,.57,1.65,2.16,2.16,0,0,0,1.6.57,2.66,2.66,0,0,0,1-.21,3,3,0,0,0,.91-.58l1.11,1.11a4.68,4.68,0,0,1-1.44.95A4,4,0,0,1,1063.47,379Z" transform="translate(77.27 -67.75)"/><path class="cls-3" d="M1073.79,378.89V366.82h1.69v12.07Zm.82-10.46v-1.61h6.93v1.61Zm0,5.27v-1.61h6v1.61Zm0,5.19v-1.62h6.93v1.62Z" transform="translate(77.27 -67.75)"/><path class="cls-3" d="M1086.51,379a2.73,2.73,0,0,1-2.2-.91,3.89,3.89,0,0,1-.78-2.59v-1.9a4,4,0,0,1,.76-2.59,2.64,2.64,0,0,1,2.14-.92,2.56,2.56,0,0,1,1.4.4,2.92,2.92,0,0,1,1,1.12l-.17,1.76a2.07,2.07,0,0,0-.2-.94,1.32,1.32,0,0,0-.58-.59,1.83,1.83,0,0,0-.91-.21,1.63,1.63,0,0,0-1.3.53,2.12,2.12,0,0,0-.46,1.47v1.87a2.07,2.07,0,0,0,.46,1.45,1.65,1.65,0,0,0,1.3.51,1.83,1.83,0,0,0,.91-.21,1.42,1.42,0,0,0,.58-.61,2.16,2.16,0,0,0,.2-1l.11,1.82a2.46,2.46,0,0,1-.8,1A2.24,2.24,0,0,1,1086.51,379Zm2.17-.14V366.82h1.69v12.07Z" transform="translate(77.27 -67.75)"/><path class="cls-3" d="M1094.64,370.27v5.24a2,2,0,0,0,.46,1.4,1.73,1.73,0,0,0,1.3.49,1.78,1.78,0,0,0,1.29-.44,1.69,1.69,0,0,0,.45-1.25l.12,1.8a2.58,2.58,0,0,1-.82,1,2.33,2.33,0,0,1-1.51.46,2.74,2.74,0,0,1-2.21-.92,3.86,3.86,0,0,1-.77-2.58v-5.24Zm3.5,8.62v-8.62h1.69v8.62Z" transform="translate(77.27 -67.75)"/><path class="cls-3" d="M1105.88,379a3.41,3.41,0,0,1-3.73-3.74v-1.42a3.7,3.7,0,0,1,1-2.74,3.74,3.74,0,0,1,2.75-1,4.44,4.44,0,0,1,1.82.35,3.09,3.09,0,0,1,1.3,1l-1.22,1.1a2.51,2.51,0,0,0-1.88-.87,2.07,2.07,0,0,0-1.52.55,2.12,2.12,0,0,0-.54,1.55v1.42a2.15,2.15,0,0,0,.54,1.57,2,2,0,0,0,1.52.56,2.29,2.29,0,0,0,1-.24,2.53,2.53,0,0,0,.85-.68l1.22,1.18a3.13,3.13,0,0,1-1.3,1A4.61,4.61,0,0,1,1105.88,379Z" transform="translate(77.27 -67.75)"/><path class="cls-3" d="M1113.62,379a3.62,3.62,0,0,1-2.37-.66,2.91,2.91,0,0,1-.07-3.93,3.24,3.24,0,0,1,2.18-.63h2.45l.11,1.36h-2.55a1.48,1.48,0,0,0-1,.29,1.16,1.16,0,0,0-.33.91,1.1,1.1,0,0,0,.44,1,2.26,2.26,0,0,0,1.32.31,3.77,3.77,0,0,0,1.44-.21.67.67,0,0,0,.48-.64l.18,1.21a2,2,0,0,1-.56.57,2.51,2.51,0,0,1-.76.34A4.11,4.11,0,0,1,1113.62,379Zm2.11-.12v-5.47a1.81,1.81,0,0,0-.45-1.31,1.71,1.71,0,0,0-1.28-.47,3.41,3.41,0,0,0-1,.15,3,3,0,0,0-.89.45l-1.23-.85a3.19,3.19,0,0,1,1.29-.92,4.59,4.59,0,0,1,1.78-.32,3.48,3.48,0,0,1,2.5.83,3.08,3.08,0,0,1,.89,2.37v5.54Z" transform="translate(77.27 -67.75)"/><path class="cls-3" d="M1119.25,371.8v-1.53h3.89v1.53Zm2.91,7.13a1.86,1.86,0,0,1-1.54-.59,2.65,2.65,0,0,1-.48-1.7v-8.88h1.69v8.9a.74.74,0,0,0,.13.48.4.4,0,0,0,.36.18h.82v1.61Z" transform="translate(77.27 -67.75)"/><path class="cls-3" d="M1125.46,368.51v-1.69h1.69v1.69Zm0,10.38v-8.62h1.69v8.62Z" transform="translate(77.27 -67.75)"/><path class="cls-3" d="M1133,379a3.45,3.45,0,0,1-2.62-1,3.88,3.88,0,0,1-.93-2.77v-1.41a3.78,3.78,0,0,1,.93-2.73,4,4,0,0,1,5.24,0,3.78,3.78,0,0,1,.93,2.73v1.43a3.81,3.81,0,0,1-.93,2.75A3.41,3.41,0,0,1,1133,379Zm0-1.61a1.72,1.72,0,0,0,1.37-.56,2.26,2.26,0,0,0,.49-1.56v-1.43a2.25,2.25,0,0,0-.49-1.55,2,2,0,0,0-2.74,0,2.25,2.25,0,0,0-.49,1.55v1.43a2.26,2.26,0,0,0,.49,1.56A1.73,1.73,0,0,0,1133,377.4Z" transform="translate(77.27 -67.75)"/><path class="cls-3" d="M1139,378.89v-8.62h1.69v8.62Zm5.23,0v-5.23a2,2,0,0,0-.47-1.41,1.75,1.75,0,0,0-1.33-.5,1.77,1.77,0,0,0-1.28.44,1.64,1.64,0,0,0-.46,1.24l-.17-1.66a3,3,0,0,1,1-1.2,2.54,2.54,0,0,1,1.42-.42,2.7,2.7,0,0,1,2.18.91,4,4,0,0,1,.76,2.6v5.23Z" transform="translate(77.27 -67.75)"/><text class="cls-4" transform="translate(1048.77 326.95)">Sri G<tspan class="cls-5" x="27.29" y="0">o</tspan><tspan x="33.4" y="0">wthami Jr Colle</tspan><tspan class="cls-9" x="113.04" y="0">g</tspan><tspan x="119.95" y="0">e - Chi</tspan><tspan class="cls-7" x="154.35" y="0">r</tspan><tspan x="158.55" y="0">ala</tspan><tspan x="0" y="15.6" xml:space="preserve">MPC  CG</tspan><tspan class="cls-8" x="49.42" y="15.6">P</tspan><tspan x="54.88" y="15.6" xml:space="preserve">A: 6.90   June 2017 - April 2019</tspan></text><text x="77.27" y="-67.75"/><g id="SVGRepo_iconCarrier-3" data-name="SVGRepo iconCarrier"><path class="cls-2" d="M1562.23,327.73l12.9,15.88,12.9-15.88a17.15,17.15,0,0,0,3.84-10.81v-.81a16.74,16.74,0,0,0-33.48,0v.81A17.15,17.15,0,0,0,1562.23,327.73Zm12.9-6.12a5.5,5.5,0,1,0-5.58-5.5A5.54,5.54,0,0,0,1575.13,321.61Z" transform="translate(77.27 -67.75)"/></g><path class="cls-3" d="M1601.79,317.05V305h1.69v12.07Zm1,0v-1.57h3.27a2.73,2.73,0,0,0,1.9-.52,1.72,1.72,0,0,0,.57-1.35v0a2.09,2.09,0,0,0-.48-1.44,2,2,0,0,0-1.58-.53h-3.68v-1.53h3.68a2,2,0,0,0,1.42-.44,2,2,0,0,0-.05-2.66,2.5,2.5,0,0,0-1.6-.44h-3.45V305h3.76a3.56,3.56,0,0,1,2.66.89,3.24,3.24,0,0,1,.87,2.38,2.82,2.82,0,0,1-.53,1.65,2.43,2.43,0,0,1-1.67,1,2.55,2.55,0,0,1,1.74,1,3.08,3.08,0,0,1,.62,1.88v0a3.1,3.1,0,0,1-1,2.38,3.59,3.59,0,0,1-2.59.91Z" transform="translate(77.27 -67.75)"/><path class="cls-3" d="M1615.36,317.17a3.71,3.71,0,0,1-2.38-.65,2.46,2.46,0,0,1-.79-2,2.42,2.42,0,0,1,.72-1.92,3.21,3.21,0,0,1,2.18-.64h2.45l.12,1.36h-2.56a1.43,1.43,0,0,0-1,.3,1.34,1.34,0,0,0,.11,1.87,2.26,2.26,0,0,0,1.32.31,3.8,3.8,0,0,0,1.44-.2.69.69,0,0,0,.48-.65l.18,1.21a2,2,0,0,1-.56.57,2.51,2.51,0,0,1-.76.34A4,4,0,0,1,1615.36,317.17Zm2.1-.12v-5.46a1.82,1.82,0,0,0-.45-1.32,1.71,1.71,0,0,0-1.28-.47,3.41,3.41,0,0,0-1,.15,2.93,2.93,0,0,0-.88.45l-1.24-.85a3.33,3.33,0,0,1,1.29-.92,4.82,4.82,0,0,1,1.78-.32,3.51,3.51,0,0,1,2.51.84,3.08,3.08,0,0,1,.89,2.36v5.54Z" transform="translate(77.27 -67.75)"/><path class="cls-3" d="M1625.13,317.17a3.41,3.41,0,0,1-3.73-3.74V312a3.66,3.66,0,0,1,1-2.74,3.74,3.74,0,0,1,2.75-1,4.61,4.61,0,0,1,1.82.35,3.09,3.09,0,0,1,1.3,1l-1.22,1.1a2.42,2.42,0,0,0-.85-.64,2.45,2.45,0,0,0-1-.22,2,2,0,0,0-1.52.55,2.08,2.08,0,0,0-.54,1.54v1.42a2.19,2.19,0,0,0,.54,1.58,2,2,0,0,0,1.52.55,2.32,2.32,0,0,0,1-.24,2.53,2.53,0,0,0,.85-.68l1.22,1.18a3.2,3.2,0,0,1-1.3,1A4.65,4.65,0,0,1,1625.13,317.17Z" transform="translate(77.27 -67.75)"/><path class="cls-3" d="M1630.12,317.05V305h1.69v12.07Zm5.23,0v-5.22a2,2,0,0,0-.47-1.42,2.1,2.1,0,0,0-2.62-.06,1.61,1.61,0,0,0-.45,1.22l-.18-1.66a3.1,3.1,0,0,1,1-1.18,2.54,2.54,0,0,1,1.42-.42,2.66,2.66,0,0,1,2.17.91,4,4,0,0,1,.77,2.6v5.23Z" transform="translate(77.27 -67.75)"/><path class="cls-3" d="M1643.14,317.17a3.74,3.74,0,0,1-2.79-1,3.9,3.9,0,0,1-1-2.86v-1a4.32,4.32,0,0,1,1-3,3.44,3.44,0,0,1,2.68-1.05,3,3,0,0,1,2.52,1.19,5.57,5.57,0,0,1,.89,3.36v.56h-5.81v-1.36h4.2a3,3,0,0,0-.54-1.64,1.53,1.53,0,0,0-1.26-.59,1.83,1.83,0,0,0-1.49.64,2.7,2.7,0,0,0-.53,1.78v1.1a2.23,2.23,0,0,0,.57,1.64,2.16,2.16,0,0,0,1.6.57,2.66,2.66,0,0,0,1-.21,2.82,2.82,0,0,0,.91-.58l1.11,1.12a5.07,5.07,0,0,1-1.44.95A4.13,4.13,0,0,1,1643.14,317.17Z" transform="translate(77.27 -67.75)"/><path class="cls-3" d="M1650.42,305v9.84a.69.69,0,0,0,.14.48.45.45,0,0,0,.38.18h.8v1.61h-1a1.87,1.87,0,0,1-1.48-.6,2.42,2.42,0,0,1-.53-1.68V305Z" transform="translate(77.27 -67.75)"/><path class="cls-3" d="M1657,317.17a3.45,3.45,0,0,1-2.62-1,3.88,3.88,0,0,1-.93-2.77V312a3.81,3.81,0,0,1,.93-2.74,4,4,0,0,1,5.25,0,3.8,3.8,0,0,1,.92,2.74v1.42a3.84,3.84,0,0,1-.92,2.76A3.46,3.46,0,0,1,1657,317.17Zm0-1.61a1.75,1.75,0,0,0,1.38-.55,2.36,2.36,0,0,0,.48-1.57V312a2.27,2.27,0,0,0-.48-1.55,2,2,0,0,0-2.75,0,2.27,2.27,0,0,0-.49,1.55v1.42a2.36,2.36,0,0,0,.49,1.57A1.74,1.74,0,0,0,1657,315.56Z" transform="translate(77.27 -67.75)"/><path class="cls-3" d="M1662.91,317.05v-8.62h1.7v8.62Zm4.74-6.58a1.43,1.43,0,0,0-.56-.41,2,2,0,0,0-.79-.14,1.67,1.67,0,0,0-1.25.44,1.66,1.66,0,0,0-.44,1.23l-.18-1.66a3.08,3.08,0,0,1,1-1.19,2.41,2.41,0,0,1,1.4-.43,3,3,0,0,1,1.06.17,2.38,2.38,0,0,1,.84.5Z" transform="translate(77.27 -67.75)"/><path class="cls-3" d="M1678,317.17a3.47,3.47,0,0,1-2.63-1,3.88,3.88,0,0,1-.93-2.77V312a3.81,3.81,0,0,1,.93-2.74,4,4,0,0,1,5.25,0,3.81,3.81,0,0,1,.93,2.74v1.42a3.84,3.84,0,0,1-.93,2.76A3.44,3.44,0,0,1,1678,317.17Zm0-1.61a1.71,1.71,0,0,0,1.37-.55,2.36,2.36,0,0,0,.49-1.57V312a2.27,2.27,0,0,0-.49-1.55,2,2,0,0,0-2.74,0,2.22,2.22,0,0,0-.49,1.55v1.42a2.31,2.31,0,0,0,.49,1.57A1.71,1.71,0,0,0,1678,315.56Z" transform="translate(77.27 -67.75)"/><path class="cls-3" d="M1683.33,309.88v-1.45h4.31v1.45Zm.92,7.17v-9.79a2.45,2.45,0,0,1,.52-1.71,2.1,2.1,0,0,1,1.62-.57h1.25v1.61h-1.21a.41.41,0,0,0-.38.19,1,1,0,0,0-.11.46v9.81Z" transform="translate(77.27 -67.75)"/><path class="cls-3" d="M1692.46,306.59V305H1701v1.61Zm3.41,10.46V306h1.69v11.08Z" transform="translate(77.27 -67.75)"/><path class="cls-3" d="M1704.75,317.17a3.74,3.74,0,0,1-2.79-1,3.9,3.9,0,0,1-1-2.86v-1a4.32,4.32,0,0,1,1-3,3.43,3.43,0,0,1,2.68-1.05,3,3,0,0,1,2.52,1.19,5.57,5.57,0,0,1,.89,3.36v.56h-5.81v-1.36h4.2a3,3,0,0,0-.54-1.64,1.56,1.56,0,0,0-1.26-.59,1.83,1.83,0,0,0-1.49.64,2.7,2.7,0,0,0-.53,1.78v1.1a2.23,2.23,0,0,0,.57,1.64,2.16,2.16,0,0,0,1.6.57,2.88,2.88,0,0,0,1.92-.79l1.12,1.12a5.07,5.07,0,0,1-1.44.95A4.13,4.13,0,0,1,1704.75,317.17Z" transform="translate(77.27 -67.75)"/><path class="cls-3" d="M1713.81,317.17a3.69,3.69,0,0,1-2.75-1,3.73,3.73,0,0,1-1-2.76V312a3.7,3.7,0,0,1,1-2.74,3.76,3.76,0,0,1,2.75-1,4.63,4.63,0,0,1,1.83.35,3.13,3.13,0,0,1,1.29,1l-1.22,1.1a2.38,2.38,0,0,0-.84-.64,2.45,2.45,0,0,0-1-.22,2,2,0,0,0-1.52.55,2.08,2.08,0,0,0-.54,1.54v1.42a2.19,2.19,0,0,0,.54,1.58,2,2,0,0,0,1.52.55,2.32,2.32,0,0,0,1-.24,2.5,2.5,0,0,0,.84-.68l1.22,1.18a3.13,3.13,0,0,1-1.3,1A4.61,4.61,0,0,1,1713.81,317.17Z" transform="translate(77.27 -67.75)"/><path class="cls-3" d="M1718.8,317.05V305h1.69v12.07Zm5.23,0v-5.22a2,2,0,0,0-.47-1.42,1.74,1.74,0,0,0-1.33-.49,1.77,1.77,0,0,0-1.28.43,1.61,1.61,0,0,0-.46,1.22l-.17-1.66a3.08,3.08,0,0,1,1-1.18,2.57,2.57,0,0,1,1.43-.42,2.69,2.69,0,0,1,2.17.91,4,4,0,0,1,.76,2.6v5.23Z" transform="translate(77.27 -67.75)"/><path class="cls-3" d="M1728.3,317.05v-8.62H1730v8.62Zm5.23,0v-5.22a2,2,0,0,0-.47-1.42,2.08,2.08,0,0,0-2.62-.05,1.63,1.63,0,0,0-.45,1.23l-.17-1.66a3,3,0,0,1,1-1.2,2.54,2.54,0,0,1,1.42-.42,2.66,2.66,0,0,1,2.17.91,4,4,0,0,1,.77,2.6v5.23Z" transform="translate(77.27 -67.75)"/><path class="cls-3" d="M1741.1,317.17a3.47,3.47,0,0,1-2.63-1,3.88,3.88,0,0,1-.93-2.77V312a3.81,3.81,0,0,1,.93-2.74,4,4,0,0,1,5.25,0,3.81,3.81,0,0,1,.93,2.74v1.42a3.84,3.84,0,0,1-.93,2.76A3.44,3.44,0,0,1,1741.1,317.17Zm0-1.61a1.71,1.71,0,0,0,1.37-.55,2.36,2.36,0,0,0,.49-1.57V312a2.27,2.27,0,0,0-.49-1.55,2,2,0,0,0-2.74,0,2.22,2.22,0,0,0-.49,1.55v1.42a2.31,2.31,0,0,0,.49,1.57A1.71,1.71,0,0,0,1741.1,315.56Z" transform="translate(77.27 -67.75)"/><path class="cls-3" d="M1748.75,305v9.84a.74.74,0,0,0,.14.48.45.45,0,0,0,.38.18h.8v1.61h-1a1.87,1.87,0,0,1-1.48-.6,2.42,2.42,0,0,1-.53-1.68V305Z" transform="translate(77.27 -67.75)"/><path class="cls-3" d="M1755.28,317.17a3.45,3.45,0,0,1-2.62-1,3.88,3.88,0,0,1-.93-2.77V312a3.81,3.81,0,0,1,.93-2.74,4,4,0,0,1,5.25,0,3.81,3.81,0,0,1,.93,2.74v1.42a3.84,3.84,0,0,1-.93,2.76A3.46,3.46,0,0,1,1755.28,317.17Zm0-1.61a1.74,1.74,0,0,0,1.38-.55,2.36,2.36,0,0,0,.48-1.57V312a2.27,2.27,0,0,0-.48-1.55,2,2,0,0,0-2.75,0,2.27,2.27,0,0,0-.49,1.55v1.42a2.36,2.36,0,0,0,.49,1.57A1.74,1.74,0,0,0,1755.28,315.56Z" transform="translate(77.27 -67.75)"/><path class="cls-3" d="M1764,317.2a2.73,2.73,0,0,1-2.2-.92,3.87,3.87,0,0,1-.78-2.59v-1.9a4,4,0,0,1,.76-2.59,2.64,2.64,0,0,1,2.14-.92,2.54,2.54,0,0,1,1.4.4,3,3,0,0,1,1,1.12l-.17,1.76a2.1,2.1,0,0,0-.2-.94,1.28,1.28,0,0,0-.58-.59,1.83,1.83,0,0,0-.91-.2,1.64,1.64,0,0,0-1.3.52,2.14,2.14,0,0,0-.46,1.47v1.87a2.07,2.07,0,0,0,.46,1.45,1.67,1.67,0,0,0,1.3.51,1.83,1.83,0,0,0,.91-.21,1.32,1.32,0,0,0,.58-.61,2.15,2.15,0,0,0,.2-.95l.12,1.81a2.73,2.73,0,0,1-.8,1.05A2.34,2.34,0,0,1,1764,317.2Zm.16,3.35a4,4,0,0,1-1.74-.36,2.77,2.77,0,0,1-1.19-1l1.15-1a2.39,2.39,0,0,0,.79.7,2,2,0,0,0,1,.25,2,2,0,0,0,1.5-.54,2.06,2.06,0,0,0,.53-1.51v-8.61h1.69v8.36a3.83,3.83,0,0,1-1,2.78A3.7,3.7,0,0,1,1764.13,320.55Z" transform="translate(77.27 -67.75)"/><path class="cls-3" d="M1772.68,317.75l-3.43-9.32H1771l2.65,7.49Zm2.47-9.32h1.72l-3.66,10.63a2.24,2.24,0,0,1-.89,1.24,3.14,3.14,0,0,1-1.6.34h-.34V319h.34a1.26,1.26,0,0,0,.75-.19,1.44,1.44,0,0,0,.49-.65Z" transform="translate(77.27 -67.75)"/><text class="cls-4" transform="translate(1678.69 265.7)">Chi<tspan class="cls-7" x="16.4" y="0">r</tspan><tspan x="20.6" y="0">ala Engineering Colle</tspan><tspan class="cls-9" x="131.67" y="0">g</tspan><tspan x="138.58" y="0">e - Chi</tspan><tspan class="cls-7" x="172.98" y="0">r</tspan><tspan x="177.18" y="0">ala</tspan><tspan x="0" y="15.6" xml:space="preserve">Computer science and engineering  CG</tspan><tspan class="cls-8" x="202.92" y="15.6">P</tspan><tspan x="208.38" y="15.6" xml:space="preserve">A: 6.90   </tspan><tspan x="0" y="31.2" xml:space="preserve">             July 2019 - June 2023</tspan></text><text x="77.27" y="-67.75"/><text x="77.27" y="-67.75"/><text x="77.27" y="-67.75"/></svg>