<svg xmlns="http://www.w3.org/2000/svg" version="1.1" xmlns:xlink="http://www.w3.org/1999/xlink" xmlns:svgjs="http://svgjs.dev/svgjs" viewBox="0 0 800 800" width="800" height="800"><g stroke-width="2.25" stroke="hsla(65, 100%, 52%, 1.00)" fill="none"><rect width="10.526315789473685" height="10.526315789473685" x="-5.2631578947368425" y="-5.2631578947368425" transform="rotate(45, 0, 0)"></rect><rect width="10.526315789473685" height="10.526315789473685" x="39.1812865497076" y="-5.2631578947368425" transform="rotate(45, 44.44444444444444, 0)"></rect><rect width="10.526315789473685" height="10.526315789473685" x="83.62573099415204" y="-5.2631578947368425" transform="rotate(45, 88.88888888888889, 0)"></rect><rect width="10.526315789473685" height="10.526315789473685" x="128.07017543859646" y="-5.2631578947368425" transform="rotate(45, 133.33333333333331, 0)"></rect><rect width="10.526315789473685" height="10.526315789473685" x="172.51461988304092" y="-5.2631578947368425" transform="rotate(45, 177.77777777777777, 0)"></rect><rect width="10.526315789473685" height="10.526315789473685" x="216.95906432748538" y="-5.2631578947368425" transform="rotate(45, 222.22222222222223, 0)"></rect><rect width="10.526315789473685" height="10.526315789473685" x="261.40350877192986" y="-5.2631578947368425" transform="rotate(45, 266.6666666666667, 0)"></rect><rect width="10.526315789473685" height="10.526315789473685" x="305.8479532163743" y="-5.2631578947368425" transform="rotate(45, 311.11111111111114, 0)"></rect><rect width="10.526315789473685" height="10.526315789473685" x="350.2923976608188" y="-5.2631578947368425" transform="rotate(45, 355.5555555555556, 0)"></rect><rect width="10.526315789473685" height="10.526315789473685" x="394.73684210526324" y="-5.2631578947368425" transform="rotate(45, 400.00000000000006, 0)"></rect><rect width="10.526315789473685" height="10.526315789473685" x="439.1812865497077" y="-5.2631578947368425" transform="rotate(45, 444.4444444444445, 0)"></rect><rect width="10.526315789473685" height="10.526315789473685" x="483.62573099415215" y="-5.2631578947368425" transform="rotate(45, 488.88888888888897, 0)"></rect><rect width="10.526315789473685" height="10.526315789473685" x="528.0701754385965" y="-5.2631578947368425" transform="rotate(45, 533.3333333333334, 0)"></rect><rect width="10.526315789473685" height="10.526315789473685" x="572.514619883041" y="-5.2631578947368425" transform="rotate(45, 577.7777777777778, 0)"></rect><rect width="10.526315789473685" height="10.526315789473685" x="616.9590643274854" y="-5.2631578947368425" transform="rotate(45, 622.2222222222223, 0)"></rect><rect width="10.526315789473685" height="10.526315789473685" x="661.4035087719299" y="-5.2631578947368425" transform="rotate(45, 666.6666666666667, 0)"></rect><rect width="10.526315789473685" height="10.526315789473685" x="705.8479532163743" y="-5.2631578947368425" transform="rotate(45, 711.1111111111112, 0)"></rect><rect width="10.526315789473685" height="10.526315789473685" x="750.2923976608188" y="-5.2631578947368425" transform="rotate(45, 755.5555555555557, 0)"></rect><rect width="10.526315789473685" height="10.526315789473685" x="794.7368421052632" y="-5.2631578947368425" transform="rotate(45, 800.0000000000001, 0)"></rect><rect width="10.526315789473685" height="10.526315789473685" x="-5.2631578947368425" y="61.40350877192983" transform="rotate(45, 0, 66.66666666666667)"></rect><rect width="10.526315789473685" height="10.526315789473685" x="39.1812865497076" y="61.40350877192983" transform="rotate(45, 44.44444444444444, 66.66666666666667)"></rect><rect width="10.526315789473685" height="10.526315789473685" x="83.62573099415204" y="61.40350877192983" transform="rotate(45, 88.88888888888889, 66.66666666666667)"></rect><rect width="10.526315789473685" height="10.526315789473685" x="128.07017543859646" y="61.40350877192983" fill="hsla(65, 100%, 52%, 1.00)" stroke="none" transform="rotate(45, 133.33333333333331, 66.66666666666667)"></rect><rect width="10.526315789473685" height="10.526315789473685" x="172.51461988304092" y="61.40350877192983" transform="rotate(45, 177.77777777777777, 66.66666666666667)"></rect><rect width="10.526315789473685" height="10.526315789473685" x="216.95906432748538" y="61.40350877192983" transform="rotate(45, 222.22222222222223, 66.66666666666667)"></rect><rect width="10.526315789473685" height="10.526315789473685" x="261.40350877192986" y="61.40350877192983" fill="hsla(65, 100%, 52%, 1.00)" stroke="none" transform="rotate(45, 266.6666666666667, 66.66666666666667)"></rect><rect width="10.526315789473685" height="10.526315789473685" x="305.8479532163743" y="61.40350877192983" fill="hsla(65, 100%, 52%, 1.00)" stroke="none" transform="rotate(45, 311.11111111111114, 66.66666666666667)"></rect><rect width="10.526315789473685" height="10.526315789473685" x="350.2923976608188" y="61.40350877192983" fill="hsla(65, 100%, 52%, 1.00)" stroke="none" transform="rotate(45, 355.5555555555556, 66.66666666666667)"></rect><rect width="10.526315789473685" height="10.526315789473685" x="394.73684210526324" y="61.40350877192983" fill="hsla(65, 100%, 52%, 1.00)" stroke="none" transform="rotate(45, 400.00000000000006, 66.66666666666667)"></rect><rect width="10.526315789473685" height="10.526315789473685" x="439.1812865497077" y="61.40350877192983" transform="rotate(45, 444.4444444444445, 66.66666666666667)"></rect><rect width="10.526315789473685" height="10.526315789473685" x="483.62573099415215" y="61.40350877192983" transform="rotate(45, 488.88888888888897, 66.66666666666667)"></rect><rect width="10.526315789473685" height="10.526315789473685" x="528.0701754385965" y="61.40350877192983" fill="hsla(65, 100%, 52%, 1.00)" stroke="none" transform="rotate(45, 533.3333333333334, 66.66666666666667)"></rect><rect width="10.526315789473685" height="10.526315789473685" x="572.514619883041" y="61.40350877192983" transform="rotate(45, 577.7777777777778, 66.66666666666667)"></rect><rect width="10.526315789473685" height="10.526315789473685" x="616.9590643274854" y="61.40350877192983" transform="rotate(45, 622.2222222222223, 66.66666666666667)"></rect><rect width="10.526315789473685" height="10.526315789473685" x="661.4035087719299" y="61.40350877192983" transform="rotate(45, 666.6666666666667, 66.66666666666667)"></rect><rect width="10.526315789473685" height="10.526315789473685" x="705.8479532163743" y="61.40350877192983" transform="rotate(45, 711.1111111111112, 66.66666666666667)"></rect><rect width="10.526315789473685" height="10.526315789473685" x="750.2923976608188" y="61.40350877192983" transform="rotate(45, 755.5555555555557, 66.66666666666667)"></rect><rect width="10.526315789473685" height="10.526315789473685" x="794.7368421052632" y="61.40350877192983" transform="rotate(45, 800.0000000000001, 66.66666666666667)"></rect><rect width="10.526315789473685" height="10.526315789473685" x="-5.2631578947368425" y="128.0701754385965" transform="rotate(45, 0, 133.33333333333334)"></rect><rect width="10.526315789473685" height="10.526315789473685" x="39.1812865497076" y="128.0701754385965" fill="hsla(65, 100%, 52%, 1.00)" stroke="none" transform="rotate(45, 44.44444444444444, 133.33333333333334)"></rect><rect width="10.526315789473685" height="10.526315789473685" x="83.62573099415204" y="128.0701754385965" transform="rotate(45, 88.88888888888889, 133.33333333333334)"></rect><rect width="10.526315789473685" height="10.526315789473685" x="128.07017543859646" y="128.0701754385965" fill="hsla(65, 100%, 52%, 1.00)" stroke="none" transform="rotate(45, 133.33333333333331, 133.33333333333334)"></rect><rect width="10.526315789473685" height="10.526315789473685" x="172.51461988304092" y="128.0701754385965" fill="hsla(65, 100%, 52%, 1.00)" stroke="none" transform="rotate(45, 177.77777777777777, 133.33333333333334)"></rect><rect width="10.526315789473685" height="10.526315789473685" x="216.95906432748538" y="128.0701754385965" fill="hsla(65, 100%, 52%, 1.00)" stroke="none" transform="rotate(45, 222.22222222222223, 133.33333333333334)"></rect><rect width="10.526315789473685" height="10.526315789473685" x="261.40350877192986" y="128.0701754385965" transform="rotate(45, 266.6666666666667, 133.33333333333334)"></rect><rect width="10.526315789473685" height="10.526315789473685" x="305.8479532163743" y="128.0701754385965" fill="hsla(65, 100%, 52%, 1.00)" stroke="none" transform="rotate(45, 311.11111111111114, 133.33333333333334)"></rect><rect width="10.526315789473685" height="10.526315789473685" x="350.2923976608188" y="128.0701754385965" transform="rotate(45, 355.5555555555556, 133.33333333333334)"></rect><rect width="10.526315789473685" height="10.526315789473685" x="394.73684210526324" y="128.0701754385965" transform="rotate(45, 400.00000000000006, 133.33333333333334)"></rect><rect width="10.526315789473685" height="10.526315789473685" x="439.1812865497077" y="128.0701754385965" transform="rotate(45, 444.4444444444445, 133.33333333333334)"></rect><rect width="10.526315789473685" height="10.526315789473685" x="483.62573099415215" y="128.0701754385965" transform="rotate(45, 488.88888888888897, 133.33333333333334)"></rect><rect width="10.526315789473685" height="10.526315789473685" x="528.0701754385965" y="128.0701754385965" transform="rotate(45, 533.3333333333334, 133.33333333333334)"></rect><rect width="10.526315789473685" height="10.526315789473685" x="572.514619883041" y="128.0701754385965" fill="hsla(65, 100%, 52%, 1.00)" stroke="none" transform="rotate(45, 577.7777777777778, 133.33333333333334)"></rect><rect width="10.526315789473685" height="10.526315789473685" x="616.9590643274854" y="128.0701754385965" fill="hsla(65, 100%, 52%, 1.00)" stroke="none" transform="rotate(45, 622.2222222222223, 133.33333333333334)"></rect><rect width="10.526315789473685" height="10.526315789473685" x="661.4035087719299" y="128.0701754385965" transform="rotate(45, 666.6666666666667, 133.33333333333334)"></rect><rect width="10.526315789473685" height="10.526315789473685" x="705.8479532163743" y="128.0701754385965" fill="hsla(65, 100%, 52%, 1.00)" stroke="none" transform="rotate(45, 711.1111111111112, 133.33333333333334)"></rect><rect width="10.526315789473685" height="10.526315789473685" x="750.2923976608188" y="128.0701754385965" transform="rotate(45, 755.5555555555557, 133.33333333333334)"></rect><rect width="10.526315789473685" height="10.526315789473685" x="794.7368421052632" y="128.0701754385965" transform="rotate(45, 800.0000000000001, 133.33333333333334)"></rect><rect width="10.526315789473685" height="10.526315789473685" x="-5.2631578947368425" y="194.73684210526315" transform="rotate(45, 0, 200)"></rect><rect width="10.526315789473685" height="10.526315789473685" x="39.1812865497076" y="194.73684210526315" transform="rotate(45, 44.44444444444444, 200)"></rect><rect width="10.526315789473685" height="10.526315789473685" x="83.62573099415204" y="194.73684210526315" transform="rotate(45, 88.88888888888889, 200)"></rect><rect width="10.526315789473685" height="10.526315789473685" x="128.07017543859646" y="194.73684210526315" transform="rotate(45, 133.33333333333331, 200)"></rect><rect width="10.526315789473685" height="10.526315789473685" x="172.51461988304092" y="194.73684210526315" transform="rotate(45, 177.77777777777777, 200)"></rect><rect width="10.526315789473685" height="10.526315789473685" x="216.95906432748538" y="194.73684210526315" transform="rotate(45, 222.22222222222223, 200)"></rect><rect width="10.526315789473685" height="10.526315789473685" x="261.40350877192986" y="194.73684210526315" transform="rotate(45, 266.6666666666667, 200)"></rect><rect width="10.526315789473685" height="10.526315789473685" x="305.8479532163743" y="194.73684210526315" fill="hsla(65, 100%, 52%, 1.00)" stroke="none" transform="rotate(45, 311.11111111111114, 200)"></rect><rect width="10.526315789473685" height="10.526315789473685" x="350.2923976608188" y="194.73684210526315" transform="rotate(45, 355.5555555555556, 200)"></rect><rect width="10.526315789473685" height="10.526315789473685" x="394.73684210526324" y="194.73684210526315" transform="rotate(45, 400.00000000000006, 200)"></rect><rect width="10.526315789473685" height="10.526315789473685" x="439.1812865497077" y="194.73684210526315" transform="rotate(45, 444.4444444444445, 200)"></rect><rect width="10.526315789473685" height="10.526315789473685" x="483.62573099415215" y="194.73684210526315" transform="rotate(45, 488.88888888888897, 200)"></rect><rect width="10.526315789473685" height="10.526315789473685" x="528.0701754385965" y="194.73684210526315" transform="rotate(45, 533.3333333333334, 200)"></rect><rect width="10.526315789473685" height="10.526315789473685" x="572.514619883041" y="194.73684210526315" transform="rotate(45, 577.7777777777778, 200)"></rect><rect width="10.526315789473685" height="10.526315789473685" x="616.9590643274854" y="194.73684210526315" fill="hsla(65, 100%, 52%, 1.00)" stroke="none" transform="rotate(45, 622.2222222222223, 200)"></rect><rect width="10.526315789473685" height="10.526315789473685" x="661.4035087719299" y="194.73684210526315" fill="hsla(65, 100%, 52%, 1.00)" stroke="none" transform="rotate(45, 666.6666666666667, 200)"></rect><rect width="10.526315789473685" height="10.526315789473685" x="705.8479532163743" y="194.73684210526315" fill="hsla(65, 100%, 52%, 1.00)" stroke="none" transform="rotate(45, 711.1111111111112, 200)"></rect><rect width="10.526315789473685" height="10.526315789473685" x="750.2923976608188" y="194.73684210526315" fill="hsla(65, 100%, 52%, 1.00)" stroke="none" transform="rotate(45, 755.5555555555557, 200)"></rect><rect width="10.526315789473685" height="10.526315789473685" x="794.7368421052632" y="194.73684210526315" transform="rotate(45, 800.0000000000001, 200)"></rect><rect width="10.526315789473685" height="10.526315789473685" x="-5.2631578947368425" y="261.40350877192986" transform="rotate(45, 0, 266.6666666666667)"></rect><rect width="10.526315789473685" height="10.526315789473685" x="39.1812865497076" y="261.40350877192986" transform="rotate(45, 44.44444444444444, 266.6666666666667)"></rect><rect width="10.526315789473685" height="10.526315789473685" x="83.62573099415204" y="261.40350877192986" transform="rotate(45, 88.88888888888889, 266.6666666666667)"></rect><rect width="10.526315789473685" height="10.526315789473685" x="128.07017543859646" y="261.40350877192986" transform="rotate(45, 133.33333333333331, 266.6666666666667)"></rect><rect width="10.526315789473685" height="10.526315789473685" x="172.51461988304092" y="261.40350877192986" transform="rotate(45, 177.77777777777777, 266.6666666666667)"></rect><rect width="10.526315789473685" height="10.526315789473685" x="216.95906432748538" y="261.40350877192986" transform="rotate(45, 222.22222222222223, 266.6666666666667)"></rect><rect width="10.526315789473685" height="10.526315789473685" x="261.40350877192986" y="261.40350877192986" fill="hsla(65, 100%, 52%, 1.00)" stroke="none" transform="rotate(45, 266.6666666666667, 266.6666666666667)"></rect><rect width="10.526315789473685" height="10.526315789473685" x="305.8479532163743" y="261.40350877192986" fill="hsla(65, 100%, 52%, 1.00)" stroke="none" transform="rotate(45, 311.11111111111114, 266.6666666666667)"></rect><rect width="10.526315789473685" height="10.526315789473685" x="350.2923976608188" y="261.40350877192986" transform="rotate(45, 355.5555555555556, 266.6666666666667)"></rect><rect width="10.526315789473685" height="10.526315789473685" x="394.73684210526324" y="261.40350877192986" transform="rotate(45, 400.00000000000006, 266.6666666666667)"></rect><rect width="10.526315789473685" height="10.526315789473685" x="439.1812865497077" y="261.40350877192986" transform="rotate(45, 444.4444444444445, 266.6666666666667)"></rect><rect width="10.526315789473685" height="10.526315789473685" x="483.62573099415215" y="261.40350877192986" transform="rotate(45, 488.88888888888897, 266.6666666666667)"></rect><rect width="10.526315789473685" height="10.526315789473685" x="528.0701754385965" y="261.40350877192986" fill="hsla(65, 100%, 52%, 1.00)" stroke="none" transform="rotate(45, 533.3333333333334, 266.6666666666667)"></rect><rect width="10.526315789473685" height="10.526315789473685" x="572.514619883041" y="261.40350877192986" transform="rotate(45, 577.7777777777778, 266.6666666666667)"></rect><rect width="10.526315789473685" height="10.526315789473685" x="616.9590643274854" y="261.40350877192986" transform="rotate(45, 622.2222222222223, 266.6666666666667)"></rect><rect width="10.526315789473685" height="10.526315789473685" x="661.4035087719299" y="261.40350877192986" fill="hsla(65, 100%, 52%, 1.00)" stroke="none" transform="rotate(45, 666.6666666666667, 266.6666666666667)"></rect><rect width="10.526315789473685" height="10.526315789473685" x="705.8479532163743" y="261.40350877192986" transform="rotate(45, 711.1111111111112, 266.6666666666667)"></rect><rect width="10.526315789473685" height="10.526315789473685" x="750.2923976608188" y="261.40350877192986" transform="rotate(45, 755.5555555555557, 266.6666666666667)"></rect><rect width="10.526315789473685" height="10.526315789473685" x="794.7368421052632" y="261.40350877192986" transform="rotate(45, 800.0000000000001, 266.6666666666667)"></rect><rect width="10.526315789473685" height="10.526315789473685" x="-5.2631578947368425" y="328.07017543859655" transform="rotate(45, 0, 333.33333333333337)"></rect><rect width="10.526315789473685" height="10.526315789473685" x="39.1812865497076" y="328.07017543859655" transform="rotate(45, 44.44444444444444, 333.33333333333337)"></rect><rect width="10.526315789473685" height="10.526315789473685" x="83.62573099415204" y="328.07017543859655" fill="hsla(65, 100%, 52%, 1.00)" stroke="none" transform="rotate(45, 88.88888888888889, 333.33333333333337)"></rect><rect width="10.526315789473685" height="10.526315789473685" x="128.07017543859646" y="328.07017543859655" transform="rotate(45, 133.33333333333331, 333.33333333333337)"></rect><rect width="10.526315789473685" height="10.526315789473685" x="172.51461988304092" y="328.07017543859655" fill="hsla(65, 100%, 52%, 1.00)" stroke="none" transform="rotate(45, 177.77777777777777, 333.33333333333337)"></rect><rect width="10.526315789473685" height="10.526315789473685" x="216.95906432748538" y="328.07017543859655" transform="rotate(45, 222.22222222222223, 333.33333333333337)"></rect><rect width="10.526315789473685" height="10.526315789473685" x="261.40350877192986" y="328.07017543859655" transform="rotate(45, 266.6666666666667, 333.33333333333337)"></rect><rect width="10.526315789473685" height="10.526315789473685" x="305.8479532163743" y="328.07017543859655" transform="rotate(45, 311.11111111111114, 333.33333333333337)"></rect><rect width="10.526315789473685" height="10.526315789473685" x="350.2923976608188" y="328.07017543859655" fill="hsla(65, 100%, 52%, 1.00)" stroke="none" transform="rotate(45, 355.5555555555556, 333.33333333333337)"></rect><rect width="10.526315789473685" height="10.526315789473685" x="394.73684210526324" y="328.07017543859655" transform="rotate(45, 400.00000000000006, 333.33333333333337)"></rect><rect width="10.526315789473685" height="10.526315789473685" x="439.1812865497077" y="328.07017543859655" transform="rotate(45, 444.4444444444445, 333.33333333333337)"></rect><rect width="10.526315789473685" height="10.526315789473685" x="483.62573099415215" y="328.07017543859655" transform="rotate(45, 488.88888888888897, 333.33333333333337)"></rect><rect width="10.526315789473685" height="10.526315789473685" x="528.0701754385965" y="328.07017543859655" transform="rotate(45, 533.3333333333334, 333.33333333333337)"></rect><rect width="10.526315789473685" height="10.526315789473685" x="572.514619883041" y="328.07017543859655" transform="rotate(45, 577.7777777777778, 333.33333333333337)"></rect><rect width="10.526315789473685" height="10.526315789473685" x="616.9590643274854" y="328.07017543859655" transform="rotate(45, 622.2222222222223, 333.33333333333337)"></rect><rect width="10.526315789473685" height="10.526315789473685" x="661.4035087719299" y="328.07017543859655" transform="rotate(45, 666.6666666666667, 333.33333333333337)"></rect><rect width="10.526315789473685" height="10.526315789473685" x="705.8479532163743" y="328.07017543859655" fill="hsla(65, 100%, 52%, 1.00)" stroke="none" transform="rotate(45, 711.1111111111112, 333.33333333333337)"></rect><rect width="10.526315789473685" height="10.526315789473685" x="750.2923976608188" y="328.07017543859655" transform="rotate(45, 755.5555555555557, 333.33333333333337)"></rect><rect width="10.526315789473685" height="10.526315789473685" x="794.7368421052632" y="328.07017543859655" transform="rotate(45, 800.0000000000001, 333.33333333333337)"></rect><rect width="10.526315789473685" height="10.526315789473685" x="-5.2631578947368425" y="394.73684210526324" transform="rotate(45, 0, 400.00000000000006)"></rect><rect width="10.526315789473685" height="10.526315789473685" x="39.1812865497076" y="394.73684210526324" transform="rotate(45, 44.44444444444444, 400.00000000000006)"></rect><rect width="10.526315789473685" height="10.526315789473685" x="83.62573099415204" y="394.73684210526324" transform="rotate(45, 88.88888888888889, 400.00000000000006)"></rect><rect width="10.526315789473685" height="10.526315789473685" x="128.07017543859646" y="394.73684210526324" transform="rotate(45, 133.33333333333331, 400.00000000000006)"></rect><rect width="10.526315789473685" height="10.526315789473685" x="172.51461988304092" y="394.73684210526324" transform="rotate(45, 177.77777777777777, 400.00000000000006)"></rect><rect width="10.526315789473685" height="10.526315789473685" x="216.95906432748538" y="394.73684210526324" transform="rotate(45, 222.22222222222223, 400.00000000000006)"></rect><rect width="10.526315789473685" height="10.526315789473685" x="261.40350877192986" y="394.73684210526324" transform="rotate(45, 266.6666666666667, 400.00000000000006)"></rect><rect width="10.526315789473685" height="10.526315789473685" x="305.8479532163743" y="394.73684210526324" transform="rotate(45, 311.11111111111114, 400.00000000000006)"></rect><rect width="10.526315789473685" height="10.526315789473685" x="350.2923976608188" y="394.73684210526324" transform="rotate(45, 355.5555555555556, 400.00000000000006)"></rect><rect width="10.526315789473685" height="10.526315789473685" x="394.73684210526324" y="394.73684210526324" fill="hsla(65, 100%, 52%, 1.00)" stroke="none" transform="rotate(45, 400.00000000000006, 400.00000000000006)"></rect><rect width="10.526315789473685" height="10.526315789473685" x="439.1812865497077" y="394.73684210526324" fill="hsla(65, 100%, 52%, 1.00)" stroke="none" transform="rotate(45, 444.4444444444445, 400.00000000000006)"></rect><rect width="10.526315789473685" height="10.526315789473685" x="483.62573099415215" y="394.73684210526324" fill="hsla(65, 100%, 52%, 1.00)" stroke="none" transform="rotate(45, 488.88888888888897, 400.00000000000006)"></rect><rect width="10.526315789473685" height="10.526315789473685" x="528.0701754385965" y="394.73684210526324" transform="rotate(45, 533.3333333333334, 400.00000000000006)"></rect><rect width="10.526315789473685" height="10.526315789473685" x="572.514619883041" y="394.73684210526324" transform="rotate(45, 577.7777777777778, 400.00000000000006)"></rect><rect width="10.526315789473685" height="10.526315789473685" x="616.9590643274854" y="394.73684210526324" fill="hsla(65, 100%, 52%, 1.00)" stroke="none" transform="rotate(45, 622.2222222222223, 400.00000000000006)"></rect><rect width="10.526315789473685" height="10.526315789473685" x="661.4035087719299" y="394.73684210526324" fill="hsla(65, 100%, 52%, 1.00)" stroke="none" transform="rotate(45, 666.6666666666667, 400.00000000000006)"></rect><rect width="10.526315789473685" height="10.526315789473685" x="705.8479532163743" y="394.73684210526324" transform="rotate(45, 711.1111111111112, 400.00000000000006)"></rect><rect width="10.526315789473685" height="10.526315789473685" x="750.2923976608188" y="394.73684210526324" transform="rotate(45, 755.5555555555557, 400.00000000000006)"></rect><rect width="10.526315789473685" height="10.526315789473685" x="794.7368421052632" y="394.73684210526324" transform="rotate(45, 800.0000000000001, 400.00000000000006)"></rect><rect width="10.526315789473685" height="10.526315789473685" x="-5.2631578947368425" y="461.4035087719299" transform="rotate(45, 0, 466.66666666666674)"></rect><rect width="10.526315789473685" height="10.526315789473685" x="39.1812865497076" y="461.4035087719299" transform="rotate(45, 44.44444444444444, 466.66666666666674)"></rect><rect width="10.526315789473685" height="10.526315789473685" x="83.62573099415204" y="461.4035087719299" transform="rotate(45, 88.88888888888889, 466.66666666666674)"></rect><rect width="10.526315789473685" height="10.526315789473685" x="128.07017543859646" y="461.4035087719299" transform="rotate(45, 133.33333333333331, 466.66666666666674)"></rect><rect width="10.526315789473685" height="10.526315789473685" x="172.51461988304092" y="461.4035087719299" transform="rotate(45, 177.77777777777777, 466.66666666666674)"></rect><rect width="10.526315789473685" height="10.526315789473685" x="216.95906432748538" y="461.4035087719299" transform="rotate(45, 222.22222222222223, 466.66666666666674)"></rect><rect width="10.526315789473685" height="10.526315789473685" x="261.40350877192986" y="461.4035087719299" transform="rotate(45, 266.6666666666667, 466.66666666666674)"></rect><rect width="10.526315789473685" height="10.526315789473685" x="305.8479532163743" y="461.4035087719299" transform="rotate(45, 311.11111111111114, 466.66666666666674)"></rect><rect width="10.526315789473685" height="10.526315789473685" x="350.2923976608188" y="461.4035087719299" fill="hsla(65, 100%, 52%, 1.00)" stroke="none" transform="rotate(45, 355.5555555555556, 466.66666666666674)"></rect><rect width="10.526315789473685" height="10.526315789473685" x="394.73684210526324" y="461.4035087719299" transform="rotate(45, 400.00000000000006, 466.66666666666674)"></rect><rect width="10.526315789473685" height="10.526315789473685" x="439.1812865497077" y="461.4035087719299" fill="hsla(65, 100%, 52%, 1.00)" stroke="none" transform="rotate(45, 444.4444444444445, 466.66666666666674)"></rect><rect width="10.526315789473685" height="10.526315789473685" x="483.62573099415215" y="461.4035087719299" transform="rotate(45, 488.88888888888897, 466.66666666666674)"></rect><rect width="10.526315789473685" height="10.526315789473685" x="528.0701754385965" y="461.4035087719299" fill="hsla(65, 100%, 52%, 1.00)" stroke="none" transform="rotate(45, 533.3333333333334, 466.66666666666674)"></rect><rect width="10.526315789473685" height="10.526315789473685" x="572.514619883041" y="461.4035087719299" transform="rotate(45, 577.7777777777778, 466.66666666666674)"></rect><rect width="10.526315789473685" height="10.526315789473685" x="616.9590643274854" y="461.4035087719299" transform="rotate(45, 622.2222222222223, 466.66666666666674)"></rect><rect width="10.526315789473685" height="10.526315789473685" x="661.4035087719299" y="461.4035087719299" fill="hsla(65, 100%, 52%, 1.00)" stroke="none" transform="rotate(45, 666.6666666666667, 466.66666666666674)"></rect><rect width="10.526315789473685" height="10.526315789473685" x="705.8479532163743" y="461.4035087719299" transform="rotate(45, 711.1111111111112, 466.66666666666674)"></rect><rect width="10.526315789473685" height="10.526315789473685" x="750.2923976608188" y="461.4035087719299" fill="hsla(65, 100%, 52%, 1.00)" stroke="none" transform="rotate(45, 755.5555555555557, 466.66666666666674)"></rect><rect width="10.526315789473685" height="10.526315789473685" x="794.7368421052632" y="461.4035087719299" transform="rotate(45, 800.0000000000001, 466.66666666666674)"></rect><rect width="10.526315789473685" height="10.526315789473685" x="-5.2631578947368425" y="528.0701754385965" transform="rotate(45, 0, 533.3333333333334)"></rect><rect width="10.526315789473685" height="10.526315789473685" x="39.1812865497076" y="528.0701754385965" fill="hsla(65, 100%, 52%, 1.00)" stroke="none" transform="rotate(45, 44.44444444444444, 533.3333333333334)"></rect><rect width="10.526315789473685" height="10.526315789473685" x="83.62573099415204" y="528.0701754385965" fill="hsla(65, 100%, 52%, 1.00)" stroke="none" transform="rotate(45, 88.88888888888889, 533.3333333333334)"></rect><rect width="10.526315789473685" height="10.526315789473685" x="128.07017543859646" y="528.0701754385965" transform="rotate(45, 133.33333333333331, 533.3333333333334)"></rect><rect width="10.526315789473685" height="10.526315789473685" x="172.51461988304092" y="528.0701754385965" fill="hsla(65, 100%, 52%, 1.00)" stroke="none" transform="rotate(45, 177.77777777777777, 533.3333333333334)"></rect><rect width="10.526315789473685" height="10.526315789473685" x="216.95906432748538" y="528.0701754385965" fill="hsla(65, 100%, 52%, 1.00)" stroke="none" transform="rotate(45, 222.22222222222223, 533.3333333333334)"></rect><rect width="10.526315789473685" height="10.526315789473685" x="261.40350877192986" y="528.0701754385965" fill="hsla(65, 100%, 52%, 1.00)" stroke="none" transform="rotate(45, 266.6666666666667, 533.3333333333334)"></rect><rect width="10.526315789473685" height="10.526315789473685" x="305.8479532163743" y="528.0701754385965" transform="rotate(45, 311.11111111111114, 533.3333333333334)"></rect><rect width="10.526315789473685" height="10.526315789473685" x="350.2923976608188" y="528.0701754385965" transform="rotate(45, 355.5555555555556, 533.3333333333334)"></rect><rect width="10.526315789473685" height="10.526315789473685" x="394.73684210526324" y="528.0701754385965" fill="hsla(65, 100%, 52%, 1.00)" stroke="none" transform="rotate(45, 400.00000000000006, 533.3333333333334)"></rect><rect width="10.526315789473685" height="10.526315789473685" x="439.1812865497077" y="528.0701754385965" fill="hsla(65, 100%, 52%, 1.00)" stroke="none" transform="rotate(45, 444.4444444444445, 533.3333333333334)"></rect><rect width="10.526315789473685" height="10.526315789473685" x="483.62573099415215" y="528.0701754385965" transform="rotate(45, 488.88888888888897, 533.3333333333334)"></rect><rect width="10.526315789473685" height="10.526315789473685" x="528.0701754385965" y="528.0701754385965" transform="rotate(45, 533.3333333333334, 533.3333333333334)"></rect><rect width="10.526315789473685" height="10.526315789473685" x="572.514619883041" y="528.0701754385965" transform="rotate(45, 577.7777777777778, 533.3333333333334)"></rect><rect width="10.526315789473685" height="10.526315789473685" x="616.9590643274854" y="528.0701754385965" transform="rotate(45, 622.2222222222223, 533.3333333333334)"></rect><rect width="10.526315789473685" height="10.526315789473685" x="661.4035087719299" y="528.0701754385965" fill="hsla(65, 100%, 52%, 1.00)" stroke="none" transform="rotate(45, 666.6666666666667, 533.3333333333334)"></rect><rect width="10.526315789473685" height="10.526315789473685" x="705.8479532163743" y="528.0701754385965" transform="rotate(45, 711.1111111111112, 533.3333333333334)"></rect><rect width="10.526315789473685" height="10.526315789473685" x="750.2923976608188" y="528.0701754385965" transform="rotate(45, 755.5555555555557, 533.3333333333334)"></rect><rect width="10.526315789473685" height="10.526315789473685" x="794.7368421052632" y="528.0701754385965" transform="rotate(45, 800.0000000000001, 533.3333333333334)"></rect><rect width="10.526315789473685" height="10.526315789473685" x="-5.2631578947368425" y="594.7368421052631" transform="rotate(45, 0, 600)"></rect><rect width="10.526315789473685" height="10.526315789473685" x="39.1812865497076" y="594.7368421052631" transform="rotate(45, 44.44444444444444, 600)"></rect><rect width="10.526315789473685" height="10.526315789473685" x="83.62573099415204" y="594.7368421052631" transform="rotate(45, 88.88888888888889, 600)"></rect><rect width="10.526315789473685" height="10.526315789473685" x="128.07017543859646" y="594.7368421052631" transform="rotate(45, 133.33333333333331, 600)"></rect><rect width="10.526315789473685" height="10.526315789473685" x="172.51461988304092" y="594.7368421052631" transform="rotate(45, 177.77777777777777, 600)"></rect><rect width="10.526315789473685" height="10.526315789473685" x="216.95906432748538" y="594.7368421052631" transform="rotate(45, 222.22222222222223, 600)"></rect><rect width="10.526315789473685" height="10.526315789473685" x="261.40350877192986" y="594.7368421052631" transform="rotate(45, 266.6666666666667, 600)"></rect><rect width="10.526315789473685" height="10.526315789473685" x="305.8479532163743" y="594.7368421052631" transform="rotate(45, 311.11111111111114, 600)"></rect><rect width="10.526315789473685" height="10.526315789473685" x="350.2923976608188" y="594.7368421052631" transform="rotate(45, 355.5555555555556, 600)"></rect><rect width="10.526315789473685" height="10.526315789473685" x="394.73684210526324" y="594.7368421052631" transform="rotate(45, 400.00000000000006, 600)"></rect><rect width="10.526315789473685" height="10.526315789473685" x="439.1812865497077" y="594.7368421052631" fill="hsla(65, 100%, 52%, 1.00)" stroke="none" transform="rotate(45, 444.4444444444445, 600)"></rect><rect width="10.526315789473685" height="10.526315789473685" x="483.62573099415215" y="594.7368421052631" transform="rotate(45, 488.88888888888897, 600)"></rect><rect width="10.526315789473685" height="10.526315789473685" x="528.0701754385965" y="594.7368421052631" transform="rotate(45, 533.3333333333334, 600)"></rect><rect width="10.526315789473685" height="10.526315789473685" x="572.514619883041" y="594.7368421052631" transform="rotate(45, 577.7777777777778, 600)"></rect><rect width="10.526315789473685" height="10.526315789473685" x="616.9590643274854" y="594.7368421052631" transform="rotate(45, 622.2222222222223, 600)"></rect><rect width="10.526315789473685" height="10.526315789473685" x="661.4035087719299" y="594.7368421052631" fill="hsla(65, 100%, 52%, 1.00)" stroke="none" transform="rotate(45, 666.6666666666667, 600)"></rect><rect width="10.526315789473685" height="10.526315789473685" x="705.8479532163743" y="594.7368421052631" transform="rotate(45, 711.1111111111112, 600)"></rect><rect width="10.526315789473685" height="10.526315789473685" x="750.2923976608188" y="594.7368421052631" transform="rotate(45, 755.5555555555557, 600)"></rect><rect width="10.526315789473685" height="10.526315789473685" x="794.7368421052632" y="594.7368421052631" transform="rotate(45, 800.0000000000001, 600)"></rect><rect width="10.526315789473685" height="10.526315789473685" x="-5.2631578947368425" y="661.4035087719298" transform="rotate(45, 0, 666.6666666666666)"></rect><rect width="10.526315789473685" height="10.526315789473685" x="39.1812865497076" y="661.4035087719298" transform="rotate(45, 44.44444444444444, 666.6666666666666)"></rect><rect width="10.526315789473685" height="10.526315789473685" x="83.62573099415204" y="661.4035087719298" transform="rotate(45, 88.88888888888889, 666.6666666666666)"></rect><rect width="10.526315789473685" height="10.526315789473685" x="128.07017543859646" y="661.4035087719298" transform="rotate(45, 133.33333333333331, 666.6666666666666)"></rect><rect width="10.526315789473685" height="10.526315789473685" x="172.51461988304092" y="661.4035087719298" transform="rotate(45, 177.77777777777777, 666.6666666666666)"></rect><rect width="10.526315789473685" height="10.526315789473685" x="216.95906432748538" y="661.4035087719298" transform="rotate(45, 222.22222222222223, 666.6666666666666)"></rect><rect width="10.526315789473685" height="10.526315789473685" x="261.40350877192986" y="661.4035087719298" transform="rotate(45, 266.6666666666667, 666.6666666666666)"></rect><rect width="10.526315789473685" height="10.526315789473685" x="305.8479532163743" y="661.4035087719298" transform="rotate(45, 311.11111111111114, 666.6666666666666)"></rect><rect width="10.526315789473685" height="10.526315789473685" x="350.2923976608188" y="661.4035087719298" transform="rotate(45, 355.5555555555556, 666.6666666666666)"></rect><rect width="10.526315789473685" height="10.526315789473685" x="394.73684210526324" y="661.4035087719298" transform="rotate(45, 400.00000000000006, 666.6666666666666)"></rect><rect width="10.526315789473685" height="10.526315789473685" x="439.1812865497077" y="661.4035087719298" transform="rotate(45, 444.4444444444445, 666.6666666666666)"></rect><rect width="10.526315789473685" height="10.526315789473685" x="483.62573099415215" y="661.4035087719298" transform="rotate(45, 488.88888888888897, 666.6666666666666)"></rect><rect width="10.526315789473685" height="10.526315789473685" x="528.0701754385965" y="661.4035087719298" transform="rotate(45, 533.3333333333334, 666.6666666666666)"></rect><rect width="10.526315789473685" height="10.526315789473685" x="572.514619883041" y="661.4035087719298" transform="rotate(45, 577.7777777777778, 666.6666666666666)"></rect><rect width="10.526315789473685" height="10.526315789473685" x="616.9590643274854" y="661.4035087719298" transform="rotate(45, 622.2222222222223, 666.6666666666666)"></rect><rect width="10.526315789473685" height="10.526315789473685" x="661.4035087719299" y="661.4035087719298" transform="rotate(45, 666.6666666666667, 666.6666666666666)"></rect><rect width="10.526315789473685" height="10.526315789473685" x="705.8479532163743" y="661.4035087719298" transform="rotate(45, 711.1111111111112, 666.6666666666666)"></rect><rect width="10.526315789473685" height="10.526315789473685" x="750.2923976608188" y="661.4035087719298" fill="hsla(65, 100%, 52%, 1.00)" stroke="none" transform="rotate(45, 755.5555555555557, 666.6666666666666)"></rect><rect width="10.526315789473685" height="10.526315789473685" x="794.7368421052632" y="661.4035087719298" transform="rotate(45, 800.0000000000001, 666.6666666666666)"></rect><rect width="10.526315789473685" height="10.526315789473685" x="-5.2631578947368425" y="728.0701754385964" transform="rotate(45, 0, 733.3333333333333)"></rect><rect width="10.526315789473685" height="10.526315789473685" x="39.1812865497076" y="728.0701754385964" transform="rotate(45, 44.44444444444444, 733.3333333333333)"></rect><rect width="10.526315789473685" height="10.526315789473685" x="83.62573099415204" y="728.0701754385964" fill="hsla(65, 100%, 52%, 1.00)" stroke="none" transform="rotate(45, 88.88888888888889, 733.3333333333333)"></rect><rect width="10.526315789473685" height="10.526315789473685" x="128.07017543859646" y="728.0701754385964" transform="rotate(45, 133.33333333333331, 733.3333333333333)"></rect><rect width="10.526315789473685" height="10.526315789473685" x="172.51461988304092" y="728.0701754385964" transform="rotate(45, 177.77777777777777, 733.3333333333333)"></rect><rect width="10.526315789473685" height="10.526315789473685" x="216.95906432748538" y="728.0701754385964" fill="hsla(65, 100%, 52%, 1.00)" stroke="none" transform="rotate(45, 222.22222222222223, 733.3333333333333)"></rect><rect width="10.526315789473685" height="10.526315789473685" x="261.40350877192986" y="728.0701754385964" fill="hsla(65, 100%, 52%, 1.00)" stroke="none" transform="rotate(45, 266.6666666666667, 733.3333333333333)"></rect><rect width="10.526315789473685" height="10.526315789473685" x="305.8479532163743" y="728.0701754385964" transform="rotate(45, 311.11111111111114, 733.3333333333333)"></rect><rect width="10.526315789473685" height="10.526315789473685" x="350.2923976608188" y="728.0701754385964" fill="hsla(65, 100%, 52%, 1.00)" stroke="none" transform="rotate(45, 355.5555555555556, 733.3333333333333)"></rect><rect width="10.526315789473685" height="10.526315789473685" x="394.73684210526324" y="728.0701754385964" transform="rotate(45, 400.00000000000006, 733.3333333333333)"></rect><rect width="10.526315789473685" height="10.526315789473685" x="439.1812865497077" y="728.0701754385964" transform="rotate(45, 444.4444444444445, 733.3333333333333)"></rect><rect width="10.526315789473685" height="10.526315789473685" x="483.62573099415215" y="728.0701754385964" transform="rotate(45, 488.88888888888897, 733.3333333333333)"></rect><rect width="10.526315789473685" height="10.526315789473685" x="528.0701754385965" y="728.0701754385964" fill="hsla(65, 100%, 52%, 1.00)" stroke="none" transform="rotate(45, 533.3333333333334, 733.3333333333333)"></rect><rect width="10.526315789473685" height="10.526315789473685" x="572.514619883041" y="728.0701754385964" transform="rotate(45, 577.7777777777778, 733.3333333333333)"></rect><rect width="10.526315789473685" height="10.526315789473685" x="616.9590643274854" y="728.0701754385964" transform="rotate(45, 622.2222222222223, 733.3333333333333)"></rect><rect width="10.526315789473685" height="10.526315789473685" x="661.4035087719299" y="728.0701754385964" transform="rotate(45, 666.6666666666667, 733.3333333333333)"></rect><rect width="10.526315789473685" height="10.526315789473685" x="705.8479532163743" y="728.0701754385964" transform="rotate(45, 711.1111111111112, 733.3333333333333)"></rect><rect width="10.526315789473685" height="10.526315789473685" x="750.2923976608188" y="728.0701754385964" transform="rotate(45, 755.5555555555557, 733.3333333333333)"></rect><rect width="10.526315789473685" height="10.526315789473685" x="794.7368421052632" y="728.0701754385964" transform="rotate(45, 800.0000000000001, 733.3333333333333)"></rect><rect width="10.526315789473685" height="10.526315789473685" x="-5.2631578947368425" y="794.736842105263" transform="rotate(45, 0, 799.9999999999999)"></rect><rect width="10.526315789473685" height="10.526315789473685" x="39.1812865497076" y="794.736842105263" transform="rotate(45, 44.44444444444444, 799.9999999999999)"></rect><rect width="10.526315789473685" height="10.526315789473685" x="83.62573099415204" y="794.736842105263" transform="rotate(45, 88.88888888888889, 799.9999999999999)"></rect><rect width="10.526315789473685" height="10.526315789473685" x="128.07017543859646" y="794.736842105263" transform="rotate(45, 133.33333333333331, 799.9999999999999)"></rect><rect width="10.526315789473685" height="10.526315789473685" x="172.51461988304092" y="794.736842105263" transform="rotate(45, 177.77777777777777, 799.9999999999999)"></rect><rect width="10.526315789473685" height="10.526315789473685" x="216.95906432748538" y="794.736842105263" transform="rotate(45, 222.22222222222223, 799.9999999999999)"></rect><rect width="10.526315789473685" height="10.526315789473685" x="261.40350877192986" y="794.736842105263" transform="rotate(45, 266.6666666666667, 799.9999999999999)"></rect><rect width="10.526315789473685" height="10.526315789473685" x="305.8479532163743" y="794.736842105263" transform="rotate(45, 311.11111111111114, 799.9999999999999)"></rect><rect width="10.526315789473685" height="10.526315789473685" x="350.2923976608188" y="794.736842105263" transform="rotate(45, 355.5555555555556, 799.9999999999999)"></rect><rect width="10.526315789473685" height="10.526315789473685" x="394.73684210526324" y="794.736842105263" transform="rotate(45, 400.00000000000006, 799.9999999999999)"></rect><rect width="10.526315789473685" height="10.526315789473685" x="439.1812865497077" y="794.736842105263" transform="rotate(45, 444.4444444444445, 799.9999999999999)"></rect><rect width="10.526315789473685" height="10.526315789473685" x="483.62573099415215" y="794.736842105263" transform="rotate(45, 488.88888888888897, 799.9999999999999)"></rect><rect width="10.526315789473685" height="10.526315789473685" x="528.0701754385965" y="794.736842105263" transform="rotate(45, 533.3333333333334, 799.9999999999999)"></rect><rect width="10.526315789473685" height="10.526315789473685" x="572.514619883041" y="794.736842105263" transform="rotate(45, 577.7777777777778, 799.9999999999999)"></rect><rect width="10.526315789473685" height="10.526315789473685" x="616.9590643274854" y="794.736842105263" transform="rotate(45, 622.2222222222223, 799.9999999999999)"></rect><rect width="10.526315789473685" height="10.526315789473685" x="661.4035087719299" y="794.736842105263" transform="rotate(45, 666.6666666666667, 799.9999999999999)"></rect><rect width="10.526315789473685" height="10.526315789473685" x="705.8479532163743" y="794.736842105263" transform="rotate(45, 711.1111111111112, 799.9999999999999)"></rect><rect width="10.526315789473685" height="10.526315789473685" x="750.2923976608188" y="794.736842105263" transform="rotate(45, 755.5555555555557, 799.9999999999999)"></rect><rect width="10.526315789473685" height="10.526315789473685" x="794.7368421052632" y="794.736842105263" transform="rotate(45, 800.0000000000001, 799.9999999999999)"></rect></g></svg>