<?xml version="1.0" encoding="utf-8"?>
<!-- Generator: Adobe Illustrator 24.3.0, SVG Export Plug-In . SVG Version: 6.00 Build 0)  -->
<svg version="1.1" id="Layer_1" xmlns="http://www.w3.org/2000/svg" xmlns:xlink="http://www.w3.org/1999/xlink" x="0px" y="0px"
	 viewBox="0 0 1920 1080" style="enable-background:new 0 0 1920 1080;" xml:space="preserve">
<style type="text/css">
	.st0{fill:none;}
	.st1{fill:#FFFF00;}
</style>
<g>
	<rect x="693.76" y="553.42" class="st0" width="29.62" height="0"/>
</g>
<g>
	<rect x="212.71" y="277.76" class="st0" width="1539.57" height="441.17"/>
	<path class="st1" d="M528.67,574.79c-14.7,0-26.08-4.05-34.15-12.16c-8.07-8.1-12.11-19.54-12.11-34.31v-17.62
		c0-14.63,4.03-25.95,12.11-33.95c8.07-8,19.45-12,34.15-12c8.38,0,15.93,1.48,22.67,4.43c6.73,2.95,12.09,7.18,16.07,12.67
		l-15.15,13.6c-2.95-3.43-6.46-6.08-10.51-7.93c-4.05-1.85-8.31-2.78-12.78-2.78c-8.11,0-14.39,2.27-18.85,6.8
		c-4.47,4.53-6.7,10.92-6.7,19.16v17.62c0,8.45,2.23,14.97,6.7,19.58c4.46,4.6,10.75,6.9,18.85,6.9c4.46,0,8.72-1,12.78-2.99
		c4.05-1.99,7.55-4.81,10.51-8.45L567.41,558c-3.98,5.36-9.36,9.5-16.12,12.42C544.52,573.33,536.98,574.79,528.67,574.79z"/>
	<path class="st1" d="M590.59,573.24V466.3h21.02v106.94H590.59z M649.42,491.65c-1.85-2.27-4.19-3.98-7.01-5.15
		c-2.82-1.17-6.08-1.75-9.79-1.75c-6.66,0-11.83,1.84-15.51,5.51c-3.67,3.67-5.51,8.77-5.51,15.3l-2.16-20.61
		c3.23-6.32,7.47-11.26,12.72-14.84c5.25-3.57,11.04-5.36,17.36-5.36c4.88,0,9.29,0.71,13.24,2.11c3.95,1.41,7.4,3.49,10.35,6.23
		L649.42,491.65z"/>
	<path class="st1" d="M714.84,574.79c-13.12,0-22.96-2.71-29.52-8.14c-6.56-5.42-9.84-13.74-9.84-24.93c0-10.65,3-18.6,9.01-23.85
		c6.01-5.25,15.02-7.88,27.04-7.88h30.39l1.44,16.9h-31.73c-5.43,0-9.51,1.22-12.26,3.66c-2.75,2.44-4.12,6.17-4.12,11.18
		c0,5.43,1.82,9.44,5.46,12.05c3.64,2.61,9.1,3.92,16.38,3.92c7.97,0,13.94-0.86,17.93-2.58c3.98-1.72,5.98-4.39,5.98-8.04
		l2.16,15.04c-1.85,2.88-4.16,5.25-6.9,7.11c-2.75,1.85-5.89,3.25-9.43,4.17C723.3,574.33,719.3,574.79,714.84,574.79z
		 M741.01,573.24v-67.79c0-7.01-1.87-12.45-5.62-16.33c-3.74-3.88-9.05-5.82-15.92-5.82c-4.19,0-8.33,0.64-12.41,1.91
		c-4.09,1.27-7.75,3.11-10.97,5.51l-15.35-10.51c4.05-4.88,9.39-8.67,16.02-11.38c6.63-2.71,13.99-4.07,22.1-4.07
		c13.39,0,23.76,3.47,31.11,10.41c7.35,6.94,11.02,16.73,11.02,29.36v68.72H741.01z"/>
	<path class="st1" d="M784.69,484.23V466.3h53.47v17.93H784.69z M796.03,573.24V451.77c0-9.41,2.16-16.48,6.49-21.22
		s11.06-7.11,20.19-7.11h15.45v19.99h-15.04c-2.13,0-3.68,0.81-4.64,2.42c-0.96,1.61-1.44,3.52-1.44,5.72v121.68H796.03z"/>
	<path class="st1" d="M851.56,485.26V466.3h48.22v18.96H851.56z M887.62,573.76c-8.79,0-15.16-2.44-19.11-7.32
		c-3.95-4.88-5.92-11.88-5.92-21.02V435.19h21.02v110.45c0,2.54,0.52,4.53,1.55,5.98s2.54,2.16,4.53,2.16h10.1v19.99H887.62z"/>
	<path class="st1" d="M928.62,444.46v-21.02h21.02v21.02H928.62z M928.62,573.24V466.3h21.02v106.94H928.62z"/>
	<path class="st1" d="M981.58,573.24V466.3h21.02v106.94H981.58z M1046.49,573.24v-64.8c0-7.55-1.94-13.39-5.82-17.51
		c-3.88-4.12-9.39-6.18-16.54-6.18c-6.87,0-12.18,1.82-15.92,5.46c-3.75,3.64-5.62,8.76-5.62,15.35l-2.16-20.61
		c3.3-6.46,7.61-11.44,12.93-14.94c5.32-3.5,11.21-5.25,17.67-5.25c11.61,0,20.59,3.8,26.94,11.38c6.35,7.59,9.53,18.32,9.53,32.2
		v64.91H1046.49z"/>
	<path class="st1" d="M1133.34,575.1c-11.81,0-20.93-3.79-27.35-11.38c-6.42-7.59-9.63-18.29-9.63-32.09v-23.59
		c0-13.87,3.14-24.61,9.43-32.2c6.29-7.59,15.13-11.38,26.53-11.38c6.32,0,12.11,1.65,17.36,4.95c5.25,3.3,9.5,7.93,12.72,13.91
		l-2.16,21.84c0-4.53-0.82-8.41-2.47-11.64c-1.65-3.23-4.04-5.68-7.16-7.37c-3.13-1.68-6.92-2.52-11.38-2.52
		c-6.94,0-12.31,2.16-16.12,6.49c-3.81,4.33-5.72,10.41-5.72,18.24v23.28c0,7.76,1.91,13.75,5.72,17.98
		c3.81,4.22,9.19,6.34,16.12,6.34c4.46,0,8.26-0.88,11.38-2.63c3.12-1.75,5.51-4.28,7.16-7.57s2.47-7.25,2.47-11.85l1.44,22.56
		c-1.92,4.81-5.24,9.12-9.94,12.93C1147.02,573.19,1140.89,575.1,1133.34,575.1z M1135.29,616.72c-8.04,0-15.23-1.49-21.58-4.48
		c-6.35-2.99-11.28-7.2-14.79-12.62l14.22-12.88c2.75,3.78,6.03,6.7,9.84,8.76c3.81,2.06,7.81,3.09,12,3.09
		c8.04,0,14.25-2.21,18.65-6.65c4.39-4.43,6.59-10.7,6.59-18.8V466.3h21.02v103.75c0,14.84-4,26.32-12,34.46
		C1161.24,612.65,1149.92,616.72,1135.29,616.72z"/>
	<path class="st1" d="M1301.62,544.62c-0.06,0.18-0.37,0.67-0.91,1.46l-3.93,5.39c-11.46,15.91-20.2,23.87-26.24,23.87
		c-2.87,0-5.26-1.02-7.18-3.06c-1.92-2.04-2.88-4.58-2.88-7.62c0-3.53,2.1-8.89,6.3-16.07l14.24-24.2c1.89,0.43,3.38,0.64,4.47,0.64
		c1.64,0,3.96-0.21,6.94-0.64l-20.73,34.06c-2.98,4.93-4.47,8.74-4.47,11.41c0,2.74,1.43,4.11,4.3,4.11
		c5.42,0,14.96-9.66,28.62-28.99c0.31-0.61,0.61-0.91,0.92-0.91C1301.44,544.07,1301.62,544.25,1301.62,544.62z M1300.3,506.86
		c0,2.13-0.9,4.12-2.69,5.98c-1.8,1.86-3.76,2.78-5.89,2.78c-2.74,0-4.11-1.37-4.11-4.11c0-2.01,0.94-3.94,2.83-5.8
		c1.89-1.86,3.87-2.79,5.93-2.79C1298.99,502.94,1300.3,504.25,1300.3,506.86z"/>
	<path class="st1" d="M1384.67,480.84c-22.83,36.28-37.22,59.47-43.19,69.58c-6.03,10.29-9.04,16.77-9.04,19.45
		c0,2.74,1.25,4.11,3.75,4.11c5.55,0,14.96-9.66,28.25-28.99c0.37-0.61,0.7-0.91,1.01-0.91c0.37,0,0.55,0.18,0.55,0.55
		c-0.06,0.18-0.37,0.67-0.91,1.46l-3.93,5.39c-11.52,15.91-20.02,23.87-25.5,23.87c-2.8,0-5.09-1.05-6.86-3.15
		c-1.77-2.1-2.65-4.79-2.65-8.08s1.1-7.09,3.29-11.41c-10.65,15.1-18.57,22.64-23.74,22.64c-3.23,0-5.94-1.38-8.13-4.15
		c-2.19-2.77-3.29-6.25-3.29-10.46c0-10.04,6.24-19.14,18.72-27.3c9.92-6.51,17.71-9.77,23.38-9.77c3.77,0,5.66,1.83,5.66,5.48
		c0,1.71-0.52,3.62-1.55,5.75l32.6-54.6c2.01,0.61,3.99,0.91,5.94,0.91C1379.49,481.21,1381.38,481.08,1384.67,480.84z
		 M1340.66,529.87c0-3.23-1.49-4.84-4.47-4.84c-5.48,0-12.71,5.46-21.69,16.39c-8.98,10.93-13.47,19.74-13.47,26.43
		c0,4.08,1.67,6.12,5.02,6.12c4.87,0,13.24-8.46,25.11-25.38C1337.49,539.46,1340.66,533.22,1340.66,529.87z"/>
	<path class="st1" d="M1412.2,544.71c0,0.18-0.55,0.97-1.65,2.37l-3.93,4.92c-12.61,15.56-23.43,23.34-32.44,23.34
		c-4.27,0-7.85-1.54-10.74-4.61c-2.89-3.07-4.34-6.92-4.34-11.55c0-10.96,7.64-20.6,22.92-28.94c8.04-4.38,14.58-6.57,19.63-6.57
		c2.19,0,4.06,0.65,5.62,1.96c1.55,1.31,2.33,2.91,2.33,4.79c0,4.38-2.86,8.11-8.58,11.19c-5.72,3.08-15.28,5.95-28.67,8.63
		c-4.14,6.27-6.21,11.5-6.21,15.71c0,5.24,2.83,7.85,8.5,7.85c9.63,0,21.42-9.39,35.37-28.17c0.73-0.97,1.34-1.46,1.83-1.46
		C1412.07,544.22,1412.2,544.41,1412.2,544.71z M1404.48,527.77c0-1.95-1.07-2.92-3.2-2.92c-3.23,0-7.47,2.24-12.74,6.71
		c-5.27,4.47-10.42,10.27-15.48,17.39c8.77-2.25,16.19-5.43,22.28-9.54C1401.43,535.31,1404.48,531.42,1404.48,527.77z"/>
	<path class="st1" d="M1476.38,544.62c0,1.28-4.45,7.19-13.34,17.74c-7.19,8.66-12.86,12.99-17,12.99c-2.8,0-5.09-1.05-6.86-3.15
		c-1.77-2.1-2.65-4.73-2.65-7.9c0-3.29,0.97-6.85,2.92-10.68c-6.09,8.52-10.75,14.28-13.97,17.26c-3.23,2.98-6.36,4.47-9.4,4.47
		c-3.23,0-5.94-1.38-8.13-4.15c-2.19-2.77-3.29-6.25-3.29-10.46c0-11.69,8.25-22.03,24.74-31.04c7.24-4.02,13.09-6.03,17.53-6.03
		c3.77,0,5.66,1.83,5.66,5.48c0,1.04-0.24,2.41-0.73,4.11l4.66-8.86c1.83,0.43,3.44,0.64,4.84,0.64c1.64,0,3.77-0.21,6.39-0.64
		l-16.16,26.75c-5.6,9.38-8.4,15.55-8.4,18.54c0,2.86,1.19,4.29,3.57,4.29c2.44,0,6.34-2.79,11.7-8.37
		c5.37-5.58,10.82-12.45,16.37-20.62c0.37-0.61,0.7-0.91,1.01-0.91C1476.2,544.07,1476.38,544.25,1476.38,544.62z M1451.23,529.51
		c0-2.98-1.37-4.47-4.11-4.47c-5.6,0-12.95,5.48-22.05,16.44c-9.1,10.96-13.65,19.81-13.65,26.57c0,3.96,1.76,5.94,5.3,5.94
		c4.2,0,11.47-6.97,21.82-20.91C1447,541.62,1451.23,533.77,1451.23,529.51z"/>
	<path class="st1" d="M1507.38,509.19c0,2.43-3.8,7.25-11.41,14.47c-0.37,1.89-0.55,3.53-0.55,4.93c0,3.53,1.61,9.13,4.84,16.8
		c1.64,3.84,2.47,7.06,2.47,9.68c0,5.48-2.66,10.23-7.99,14.24c-5.33,4.02-11.64,6.03-18.95,6.03c-4.14,0-7.44-1.17-9.91-3.51
		c-2.46-2.34-3.7-5.49-3.7-9.45c0-4.57,1.63-9.01,4.88-13.33c3.26-4.32,6.62-6.48,10.09-6.48c0.61,0,1.16,0.12,1.64,0.37l7.3-8.95
		c2.19-2.62,5.11-6.24,8.77-10.87c1.04-4.26,2.62-7.91,4.75-10.96c2.13-3.04,4.23-4.57,6.3-4.57
		C1506.9,507.59,1507.38,508.13,1507.38,509.19z M1494.69,545.21c0-1.83-0.06-3.64-0.18-5.43c-0.12-1.79-0.18-4.37-0.18-7.72
		c0-2.74,0.12-5.02,0.37-6.85c-3.41,4.32-8.34,10.41-14.79,18.26c1.16,0.97,1.74,2.16,1.74,3.56c0,3.59-2.95,6.03-8.86,7.3
		c-2.38,0.55-4.43,1.84-6.16,3.88c-1.73,2.04-2.6,4.19-2.6,6.44c0,2.44,0.88,4.47,2.65,6.12c1.76,1.64,3.96,2.46,6.57,2.46
		c5.11,0,9.97-2.97,14.56-8.9C1492.39,558.41,1494.69,552.03,1494.69,545.21z"/>
</g>
<g>
	<rect x="1439.53" y="783.9" class="st0" width="3.02" height="3.02"/>
</g>
</svg>
